<?xml version="1.0" encoding="UTF-8"?>
<svg width="296px" height="65px" viewBox="0 0 296 65" version="1.1" xmlns="http://www.w3.org/2000/svg" xmlns:xlink="http://www.w3.org/1999/xlink">
    <!-- Generator: Sketch 49.3 (51167) - http://www.bohemiancoding.com/sketch -->
    <title>logo-text copy</title>
    <desc>Created with Sketch.</desc>
    <defs></defs>
    <g id="CalcuCafe" stroke="none" stroke-width="1" fill="none" fill-rule="evenodd">
        <g id="Artboard-3" transform="translate(-197.000000, -1405.000000)" fill="#FFFFFF" fill-rule="nonzero">
            <path d="M234.763549,1444.68978 C234.835895,1444.8399 234.872068,1444.92369 234.872068,1444.94117 C234.872068,1444.9665 234.859402,1444.94117 234.834068,1444.86517 C234.816591,1444.81274 234.793084,1444.75427 234.763549,1444.68978 Z M234.763549,1444.68978 C234.750274,1444.6608 234.73578,1444.63059 234.720068,1444.59917 L234.644068,1444.44717 C234.796069,1444.75117 234.808735,1445.40983 234.682068,1446.42317 C234.555401,1447.43651 234.378069,1448.51316 234.150068,1449.65317 C233.922067,1450.79317 233.681403,1451.85716 233.428068,1452.84517 C233.174733,1453.83317 232.972069,1454.4285 232.820068,1454.63117 C231.80673,1455.94851 230.666741,1457.24049 229.400068,1458.50717 C228.133395,1459.77384 226.689409,1460.7365 225.068068,1461.39517 C222.382721,1462.45917 219.735414,1462.9025 217.126068,1462.72517 C214.516722,1462.54783 212.084746,1461.87651 209.830068,1460.71117 C207.57539,1459.54583 205.536077,1457.96251 203.712068,1455.96117 C201.888059,1453.95982 200.41874,1451.69251 199.304068,1449.15917 C198.240063,1446.77782 197.543403,1444.04185 197.214068,1440.95117 C196.884733,1437.86049 196.935399,1434.75718 197.366068,1431.64117 C197.796737,1428.52515 198.607395,1425.59918 199.798068,1422.86317 C200.988741,1420.12715 202.622724,1417.92318 204.700068,1416.25117 C206.878746,1414.52849 209.082724,1413.40117 211.312068,1412.86917 C213.541413,1412.33716 215.694724,1412.18517 217.772068,1412.41317 C219.849412,1412.64117 221.774726,1413.1605 223.548068,1413.97117 C225.32141,1414.78184 226.816062,1415.64316 228.032068,1416.55517 C228.386736,1416.8085 229.007397,1417.2645 229.894068,1417.92317 C230.780739,1418.58184 231.515398,1419.2785 232.098068,1420.01317 C232.680738,1420.74784 232.908735,1421.39383 232.782068,1421.95117 C232.655401,1422.5085 231.781409,1422.8125 230.160068,1422.86317 C229.045396,1422.91383 227.981406,1422.83784 226.968068,1422.63517 C225.95473,1422.4325 224.941406,1422.19184 223.928068,1421.91317 C222.91473,1421.6345 221.901406,1421.38117 220.888068,1421.15317 C219.87473,1420.92517 218.81074,1420.81117 217.696068,1420.81117 C211.869372,1420.81117 208.272075,1424.78846 206.904068,1432.74317 C206.7014,1433.95917 206.511402,1435.36516 206.334068,1436.96117 C206.156734,1438.55718 206.055402,1440.22916 206.030068,1441.97717 C206.004735,1443.72518 206.0934,1445.43516 206.296068,1447.10717 C206.498736,1448.77918 206.866065,1450.29916 207.398068,1451.66717 C207.930071,1453.03517 208.66473,1454.14983 209.602068,1455.01117 C210.539406,1455.87251 211.76806,1456.35383 213.288068,1456.45517 C214.656075,1456.5565 215.986062,1456.39184 217.278068,1455.96117 C218.570075,1455.5305 219.811395,1454.94784 221.002068,1454.21317 C222.192741,1453.4785 223.332729,1452.68051 224.422068,1451.81917 C225.511407,1450.95783 226.537397,1450.09651 227.500068,1449.23517 C227.652069,1449.08317 228.044732,1448.6145 228.678068,1447.82917 C229.311405,1447.04383 230.033397,1446.2965 230.844068,1445.58717 C231.654739,1444.87783 232.414731,1444.34584 233.124068,1443.99117 C233.833405,1443.6365 234.340067,1443.7885 234.644068,1444.44717 C234.691204,1444.54144 234.731031,1444.62231 234.763549,1444.68978 Z M258.204068,1430.38717 C258.052067,1431.04584 257.621405,1431.5905 256.912068,1432.02117 C256.202731,1432.45184 255.392073,1432.89517 254.480068,1433.35117 C253.568063,1433.80717 252.63074,1434.31383 251.668068,1434.87117 C250.705397,1435.4285 249.894738,1436.16316 249.236068,1437.07517 C248.22273,1438.54451 247.513403,1440.29249 247.108068,1442.31917 C246.702733,1444.34584 246.512735,1446.28383 246.538068,1448.13317 C246.563402,1449.98251 246.791399,1451.57849 247.222068,1452.92117 C247.652737,1454.26384 248.197398,1454.93517 248.856068,1454.93517 C249.666739,1454.93517 250.515397,1454.55517 251.402068,1453.79517 C252.288739,1453.03516 253.086731,1452.16117 253.796068,1451.17317 C254.505405,1450.18516 255.088066,1449.17184 255.544068,1448.13317 C256.00007,1447.0945 256.228068,1446.2965 256.228068,1445.73917 C256.228068,1445.18183 256.202735,1444.40917 256.152068,1443.42117 C256.101401,1442.43316 256.114068,1441.45784 256.190068,1440.49517 C256.266068,1439.5325 256.418067,1438.6965 256.646068,1437.98717 C256.874069,1437.27783 257.266732,1436.89783 257.824068,1436.84717 C258.381404,1436.7965 259.052731,1436.66984 259.838068,1436.46717 C260.623405,1436.2645 261.370731,1436.23917 262.080068,1436.39117 C262.789405,1436.54317 263.359399,1437.03716 263.790068,1437.87317 C264.220737,1438.70917 264.385402,1440.14049 264.284068,1442.16717 C264.132067,1446.27119 264.334732,1449.37449 264.892068,1451.47717 C265.449404,1453.57984 266.538727,1454.8085 268.160068,1455.16317 C269.27474,1455.36584 270.275397,1455.09984 271.162068,1454.36517 C272.048739,1453.6305 272.846731,1452.80717 273.556068,1451.89517 C274.265405,1450.98316 274.873399,1450.15984 275.380068,1449.42517 C275.886737,1448.6905 276.292067,1448.39917 276.596068,1448.55117 C276.950736,1448.70317 277.077402,1449.3365 276.976068,1450.45117 C276.874734,1451.56584 276.494738,1452.81983 275.836068,1454.21317 C275.177398,1455.60651 274.202075,1456.99983 272.910068,1458.39317 C271.618062,1459.78651 269.958745,1460.86316 267.932068,1461.62317 C266.868063,1462.0285 265.880073,1462.23117 264.968068,1462.23117 C264.056063,1462.23117 263.232738,1462.1045 262.498068,1461.85117 C261.763398,1461.59783 261.117404,1461.24317 260.560068,1460.78717 C260.002732,1460.33117 259.49607,1459.8245 259.040068,1459.26717 C258.02673,1458.00049 257.216071,1456.42984 256.608068,1454.55517 C256.101399,1455.77117 255.392073,1456.83516 254.480068,1457.74717 C253.720064,1458.55784 252.732074,1459.30516 251.516068,1459.98917 C250.300062,1460.67317 248.80541,1461.06583 247.032068,1461.16717 C245.258726,1461.21783 243.586743,1460.66051 242.016068,1459.49517 C240.445394,1458.32983 239.191406,1456.75918 238.254068,1454.78317 C237.31673,1452.80716 236.810068,1450.51451 236.734068,1447.90517 C236.658068,1445.29582 237.228062,1442.54718 238.444068,1439.65917 C239.254739,1437.78449 240.318728,1436.18851 241.636068,1434.87117 C242.953408,1433.55383 244.359394,1432.47717 245.854068,1431.64117 C247.348742,1430.80516 248.843394,1430.19717 250.338068,1429.81717 C251.832742,1429.43717 253.175395,1429.22183 254.366068,1429.17117 C255.556741,1429.1205 256.519398,1429.20917 257.254068,1429.43717 C257.988738,1429.66517 258.305402,1429.98183 258.204068,1430.38717 Z M297.724068,1416.55517 C297.5214,1418.83518 297.166737,1421.01382 296.660068,1423.09117 C296.153399,1425.16851 295.558071,1427.14449 294.874068,1429.01917 C294.190065,1430.89384 293.442739,1432.66716 292.632068,1434.33917 C291.821397,1436.01118 291.010739,1437.53116 290.200068,1438.89917 C288.274725,1442.14185 286.146746,1445.08049 283.816068,1447.71517 C283.816068,1448.06984 283.892067,1448.52583 284.044068,1449.08317 C284.145402,1449.58984 284.348067,1450.2105 284.652068,1450.94517 C284.95607,1451.67984 285.437398,1452.55383 286.096068,1453.56717 C287.413408,1455.69518 288.87006,1457.02516 290.466068,1457.55717 C292.062076,1458.08917 293.607394,1458.13984 295.102068,1457.70917 C296.596742,1457.2785 297.901396,1456.51851 299.016068,1455.42917 C300.13074,1454.33983 300.890733,1453.23784 301.296068,1452.12317 C301.701403,1450.95783 302.106733,1450.19784 302.512068,1449.84317 C302.917403,1449.4885 303.284733,1449.39983 303.614068,1449.57717 C303.943403,1449.7545 304.196734,1450.12183 304.374068,1450.67917 C304.551402,1451.2365 304.614735,1451.8445 304.564068,1452.50317 C303.70273,1454.78318 302.613408,1456.78449 301.296068,1458.50717 C300.738732,1459.26717 300.080072,1460.00183 299.320068,1460.71117 C298.560064,1461.4205 297.724073,1462.05383 296.812068,1462.61117 C295.900063,1463.1685 294.899407,1463.61183 293.810068,1463.94117 C292.720729,1464.2705 291.542741,1464.40983 290.276068,1464.35917 C287.033385,1464.3085 284.335412,1463.52318 282.182068,1462.00317 C280.028724,1460.48316 278.293408,1458.53251 276.976068,1456.15117 C275.658728,1453.76982 274.721404,1451.07185 274.164068,1448.05717 C273.606732,1445.04249 273.290068,1441.98985 273.214068,1438.89917 C273.138068,1435.80849 273.264733,1432.83185 273.594068,1429.96917 C273.923403,1427.10649 274.316066,1424.61118 274.772068,1422.48317 C275.278737,1420.25382 275.950064,1418.04985 276.786068,1415.87117 C277.622072,1413.69249 278.660729,1411.76718 279.902068,1410.09517 C281.143408,1408.42316 282.612726,1407.10584 284.310068,1406.14317 C286.00741,1405.1805 287.996057,1404.82583 290.276068,1405.07917 C291.948076,1405.3325 293.392062,1405.91516 294.608068,1406.82717 C295.621406,1407.58717 296.482731,1408.73983 297.192068,1410.28517 C297.901405,1411.83051 298.078736,1413.92049 297.724068,1416.55517 Z M283.056068,1441.02717 C284.373408,1438.84849 285.589396,1436.59385 286.704068,1434.26317 C287.66674,1432.28716 288.604063,1430.12118 289.516068,1427.76517 C290.428073,1425.40916 291.086733,1423.09118 291.492068,1420.81117 C291.694736,1419.6965 291.884734,1418.55651 292.062068,1417.39117 C292.239402,1416.22583 292.315402,1415.14917 292.290068,1414.16117 C292.264735,1413.17316 292.074736,1412.33717 291.720068,1411.65317 C291.3654,1410.96916 290.782739,1410.5765 289.972068,1410.47517 C288.908063,1410.37383 287.958072,1410.74116 287.122068,1411.57717 C286.286064,1412.41317 285.576738,1413.57849 284.994068,1415.07317 C284.411398,1416.56784 283.942736,1418.34116 283.588068,1420.39317 C283.2334,1422.44518 282.980069,1424.62382 282.828068,1426.92917 C282.676067,1429.23451 282.625401,1431.60316 282.676068,1434.03517 C282.726735,1436.46718 282.8534,1438.79782 283.056068,1441.02717 Z M321.436068,1433.88317 C321.284067,1434.1365 320.802739,1434.19983 319.992068,1434.07317 C319.181397,1433.9465 318.244073,1433.92117 317.180068,1433.99717 C316.116063,1434.07317 315.052073,1434.4025 313.988068,1434.98517 C312.924063,1435.56784 312.062738,1436.66983 311.404068,1438.29117 C310.796065,1439.91251 310.378069,1441.63516 310.150068,1443.45917 C309.922067,1445.28318 309.922067,1447.01849 310.150068,1448.66517 C310.378069,1450.31184 310.808732,1451.74316 311.442068,1452.95917 C312.075405,1454.17517 312.924063,1455.01117 313.988068,1455.46717 C315.508076,1456.07517 316.876062,1456.27784 318.092068,1456.07517 C319.308074,1455.8725 320.397397,1455.5305 321.360068,1455.04917 C322.32274,1454.56783 323.146065,1454.0485 323.830068,1453.49117 C324.514071,1452.93383 325.058733,1452.57917 325.464068,1452.42717 C326.42674,1452.12317 326.857402,1452.4905 326.756068,1453.52917 C326.654734,1454.56784 325.945408,1455.89783 324.628068,1457.51917 C323.918731,1458.43117 323.032073,1459.30516 321.968068,1460.14117 C320.904063,1460.97717 319.713408,1461.6485 318.396068,1462.15517 C317.078728,1462.66184 315.647409,1462.9405 314.102068,1462.99117 C312.556727,1463.04183 310.922743,1462.73784 309.200068,1462.07917 C307.578727,1461.47116 306.109408,1460.48317 304.792068,1459.11517 C303.474728,1457.74716 302.398072,1456.16384 301.562068,1454.36517 C300.726064,1452.56649 300.143403,1450.62851 299.814068,1448.55117 C299.484733,1446.47382 299.510066,1444.39651 299.890068,1442.31917 C300.27007,1440.24182 301.030062,1438.22784 302.170068,1436.27717 C303.310074,1434.32649 304.893391,1432.59118 306.920068,1431.07117 C308.845411,1429.70316 310.732725,1428.99383 312.582068,1428.94317 C314.431411,1428.8925 316.052728,1429.14583 317.446068,1429.70317 C318.839408,1430.2605 319.916064,1430.9825 320.676068,1431.86917 C321.436072,1432.75584 321.689403,1433.42717 321.436068,1433.88317 Z M335.648068,1433.04717 C335.597401,1433.55384 335.546735,1434.41516 335.496068,1435.63117 C335.445401,1436.84717 335.420068,1438.20249 335.420068,1439.69717 C335.420068,1441.19184 335.470734,1442.74983 335.572068,1444.37117 C335.673402,1445.99251 335.850733,1447.47449 336.104068,1448.81717 C336.357403,1450.15984 336.737399,1451.26183 337.244068,1452.12317 C337.750737,1452.98451 338.409397,1453.41517 339.220068,1453.41517 C340.385407,1453.41517 341.386064,1452.98451 342.222068,1452.12317 C343.058072,1451.26183 343.780065,1450.17251 344.388068,1448.85517 C344.996071,1447.53783 345.4774,1446.05584 345.832068,1444.40917 C346.186736,1442.76249 346.478067,1441.15384 346.706068,1439.58317 C346.934069,1438.01249 347.086068,1436.54317 347.162068,1435.17517 C347.238068,1433.80716 347.301401,1432.74317 347.352068,1431.98317 C347.402735,1431.07116 347.668732,1430.4125 348.150068,1430.00717 C348.631404,1429.60183 349.226731,1429.3865 349.936068,1429.36117 C350.645405,1429.33583 351.405397,1429.47517 352.216068,1429.77917 C353.026739,1430.08317 353.786731,1430.46317 354.496068,1430.91917 C355.205405,1431.37517 355.788066,1431.8945 356.244068,1432.47717 C356.70007,1433.05984 356.953401,1433.62983 357.004068,1434.18717 C357.054735,1434.94717 357.029402,1436.04916 356.928068,1437.49317 C356.826734,1438.93717 356.738068,1440.55849 356.662068,1442.35717 C356.586068,1444.15584 356.548068,1446.00516 356.548068,1447.90517 C356.548068,1449.80518 356.6874,1451.55316 356.966068,1453.14917 C357.244736,1454.74518 357.675398,1456.11316 358.258068,1457.25317 C358.840738,1458.39317 359.664063,1459.08983 360.728068,1459.34317 C361.69074,1459.5965 362.3494,1459.92583 362.704068,1460.33117 C363.058736,1460.7365 363.096736,1461.12917 362.818068,1461.50917 C362.5394,1461.88917 361.982072,1462.1805 361.146068,1462.38317 C360.310064,1462.58584 359.182742,1462.5605 357.764068,1462.30717 C355.43339,1461.90183 353.634741,1461.09117 352.368068,1459.87517 C351.101395,1458.65916 350.164071,1457.39251 349.556068,1456.07517 C348.846731,1454.55516 348.416069,1452.88318 348.264068,1451.05917 C347.605398,1453.08584 346.744073,1454.83383 345.680068,1456.30317 C344.768063,1457.62051 343.590075,1458.74783 342.146068,1459.68517 C340.702061,1460.62251 338.941412,1460.93917 336.864068,1460.63517 C334.786724,1460.33117 333.076741,1459.65984 331.734068,1458.62117 C330.391395,1457.5825 329.302072,1456.32851 328.466068,1454.85917 C327.630064,1453.38983 327.009403,1451.78118 326.604068,1450.03317 C326.198733,1448.28516 325.920069,1446.52451 325.768068,1444.75117 C325.616067,1443.33249 325.540068,1441.91384 325.540068,1440.49517 C325.540068,1439.07649 325.590734,1437.75917 325.692068,1436.54317 C325.793402,1435.32716 325.9454,1434.28851 326.148068,1433.42717 C326.350736,1432.56583 326.578733,1432.0085 326.832068,1431.75517 C327.13607,1431.50183 327.769397,1431.22317 328.732068,1430.91917 C329.69474,1430.61517 330.695396,1430.4505 331.734068,1430.42517 C332.77274,1430.39983 333.697397,1430.5645 334.508068,1430.91917 C335.318739,1431.27384 335.698735,1431.98316 335.648068,1433.04717 Z M400.671549,1444.68978 C400.743895,1444.8399 400.780068,1444.92369 400.780068,1444.94117 C400.780068,1444.9665 400.767402,1444.94117 400.742068,1444.86517 C400.724591,1444.81274 400.701084,1444.75427 400.671549,1444.68978 Z M400.671549,1444.68978 C400.658274,1444.6608 400.64378,1444.63059 400.628068,1444.59917 L400.552068,1444.44717 C400.704069,1444.75117 400.716735,1445.40983 400.590068,1446.42317 C400.463401,1447.43651 400.286069,1448.51316 400.058068,1449.65317 C399.830067,1450.79317 399.589403,1451.85716 399.336068,1452.84517 C399.082733,1453.83317 398.880069,1454.4285 398.728068,1454.63117 C397.71473,1455.94851 396.574741,1457.24049 395.308068,1458.50717 C394.041395,1459.77384 392.597409,1460.7365 390.976068,1461.39517 C388.290721,1462.45917 385.643414,1462.9025 383.034068,1462.72517 C380.424722,1462.54783 377.992746,1461.87651 375.738068,1460.71117 C373.48339,1459.54583 371.444077,1457.96251 369.620068,1455.96117 C367.796059,1453.95982 366.32674,1451.69251 365.212068,1449.15917 C364.148063,1446.77782 363.451403,1444.04185 363.122068,1440.95117 C362.792733,1437.86049 362.843399,1434.75718 363.274068,1431.64117 C363.704737,1428.52515 364.515395,1425.59918 365.706068,1422.86317 C366.896741,1420.12715 368.530724,1417.92318 370.608068,1416.25117 C372.786746,1414.52849 374.990724,1413.40117 377.220068,1412.86917 C379.449413,1412.33716 381.602724,1412.18517 383.680068,1412.41317 C385.757412,1412.64117 387.682726,1413.1605 389.456068,1413.97117 C391.22941,1414.78184 392.724062,1415.64316 393.940068,1416.55517 C394.294736,1416.8085 394.915397,1417.2645 395.802068,1417.92317 C396.688739,1418.58184 397.423398,1419.2785 398.006068,1420.01317 C398.588738,1420.74784 398.816735,1421.39383 398.690068,1421.95117 C398.563401,1422.5085 397.689409,1422.8125 396.068068,1422.86317 C394.953396,1422.91383 393.889406,1422.83784 392.876068,1422.63517 C391.86273,1422.4325 390.849406,1422.19184 389.836068,1421.91317 C388.82273,1421.6345 387.809406,1421.38117 386.796068,1421.15317 C385.78273,1420.92517 384.71874,1420.81117 383.604068,1420.81117 C377.777372,1420.81117 374.180075,1424.78846 372.812068,1432.74317 C372.6094,1433.95917 372.419402,1435.36516 372.242068,1436.96117 C372.064734,1438.55718 371.963402,1440.22916 371.938068,1441.97717 C371.912735,1443.72518 372.0014,1445.43516 372.204068,1447.10717 C372.406736,1448.77918 372.774065,1450.29916 373.306068,1451.66717 C373.838071,1453.03517 374.57273,1454.14983 375.510068,1455.01117 C376.447406,1455.87251 377.67606,1456.35383 379.196068,1456.45517 C380.564075,1456.5565 381.894062,1456.39184 383.186068,1455.96117 C384.478075,1455.5305 385.719395,1454.94784 386.910068,1454.21317 C388.100741,1453.4785 389.240729,1452.68051 390.330068,1451.81917 C391.419407,1450.95783 392.445397,1450.09651 393.408068,1449.23517 C393.560069,1449.08317 393.952732,1448.6145 394.586068,1447.82917 C395.219405,1447.04383 395.941397,1446.2965 396.752068,1445.58717 C397.562739,1444.87783 398.322731,1444.34584 399.032068,1443.99117 C399.741405,1443.6365 400.248067,1443.7885 400.552068,1444.44717 C400.599204,1444.54144 400.639031,1444.62231 400.671549,1444.68978 Z M424.112068,1430.38717 C423.960067,1431.04584 423.529405,1431.5905 422.820068,1432.02117 C422.110731,1432.45184 421.300073,1432.89517 420.388068,1433.35117 C419.476063,1433.80717 418.53874,1434.31383 417.576068,1434.87117 C416.613397,1435.4285 415.802738,1436.16316 415.144068,1437.07517 C414.13073,1438.54451 413.421403,1440.29249 413.016068,1442.31917 C412.610733,1444.34584 412.420735,1446.28383 412.446068,1448.13317 C412.471402,1449.98251 412.699399,1451.57849 413.130068,1452.92117 C413.560737,1454.26384 414.105398,1454.93517 414.764068,1454.93517 C415.574739,1454.93517 416.423397,1454.55517 417.310068,1453.79517 C418.196739,1453.03516 418.994731,1452.16117 419.704068,1451.17317 C420.413405,1450.18516 420.996066,1449.17184 421.452068,1448.13317 C421.90807,1447.0945 422.136068,1446.2965 422.136068,1445.73917 C422.136068,1445.18183 422.110735,1444.40917 422.060068,1443.42117 C422.009401,1442.43316 422.022068,1441.45784 422.098068,1440.49517 C422.174068,1439.5325 422.326067,1438.6965 422.554068,1437.98717 C422.782069,1437.27783 423.174732,1436.89783 423.732068,1436.84717 C424.289404,1436.7965 424.960731,1436.66984 425.746068,1436.46717 C426.531405,1436.2645 427.278731,1436.23917 427.988068,1436.39117 C428.697405,1436.54317 429.267399,1437.03716 429.698068,1437.87317 C430.128737,1438.70917 430.293402,1440.14049 430.192068,1442.16717 C430.040067,1446.27119 430.242732,1449.37449 430.800068,1451.47717 C431.357404,1453.57984 432.446727,1454.8085 434.068068,1455.16317 C435.18274,1455.36584 436.183397,1455.09984 437.070068,1454.36517 C437.956739,1453.6305 438.754731,1452.80717 439.464068,1451.89517 C440.173405,1450.98316 440.781399,1450.15984 441.288068,1449.42517 C441.794737,1448.6905 442.200067,1448.39917 442.504068,1448.55117 C442.858736,1448.70317 442.985402,1449.3365 442.884068,1450.45117 C442.782734,1451.56584 442.402738,1452.81983 441.744068,1454.21317 C441.085398,1455.60651 440.110075,1456.99983 438.818068,1458.39317 C437.526062,1459.78651 435.866745,1460.86316 433.840068,1461.62317 C432.776063,1462.0285 431.788073,1462.23117 430.876068,1462.23117 C429.964063,1462.23117 429.140738,1462.1045 428.406068,1461.85117 C427.671398,1461.59783 427.025404,1461.24317 426.468068,1460.78717 C425.910732,1460.33117 425.40407,1459.8245 424.948068,1459.26717 C423.93473,1458.00049 423.124071,1456.42984 422.516068,1454.55517 C422.009399,1455.77117 421.300073,1456.83516 420.388068,1457.74717 C419.628064,1458.55784 418.640074,1459.30516 417.424068,1459.98917 C416.208062,1460.67317 414.71341,1461.06583 412.940068,1461.16717 C411.166726,1461.21783 409.494743,1460.66051 407.924068,1459.49517 C406.353394,1458.32983 405.099406,1456.75918 404.162068,1454.78317 C403.22473,1452.80716 402.718068,1450.51451 402.642068,1447.90517 C402.566068,1445.29582 403.136062,1442.54718 404.352068,1439.65917 C405.162739,1437.78449 406.226728,1436.18851 407.544068,1434.87117 C408.861408,1433.55383 410.267394,1432.47717 411.762068,1431.64117 C413.256742,1430.80516 414.751394,1430.19717 416.246068,1429.81717 C417.740742,1429.43717 419.083395,1429.22183 420.274068,1429.17117 C421.464741,1429.1205 422.427398,1429.20917 423.162068,1429.43717 C423.896738,1429.66517 424.213402,1429.98183 424.112068,1430.38717 Z M463.328068,1409.71517 C463.328068,1410.47517 462.960738,1410.94383 462.226068,1411.12117 C461.491398,1411.2985 460.655406,1411.39983 459.718068,1411.42517 C458.78073,1411.4505 457.856073,1411.55183 456.944068,1411.72917 C456.032063,1411.9065 455.398736,1412.37516 455.044068,1413.13517 C454.6894,1413.89517 454.398069,1414.81983 454.170068,1415.90917 C453.942067,1416.99851 453.752069,1418.18916 453.600068,1419.48117 C453.448067,1420.77317 453.346735,1422.11583 453.296068,1423.50917 C453.245401,1424.90251 453.220068,1426.28316 453.220068,1427.65117 C453.220068,1430.79252 453.3214,1434.16182 453.524068,1437.75917 C454.081404,1437.60717 454.79073,1437.42984 455.652068,1437.22717 C456.361405,1437.07517 457.248063,1436.89784 458.312068,1436.69517 C459.376073,1436.4925 460.642727,1436.2645 462.112068,1436.01117 C463.632076,1435.8085 464.835397,1435.8085 465.722068,1436.01117 C466.608739,1436.21384 467.204067,1436.50517 467.508068,1436.88517 C467.81207,1437.26517 467.824736,1437.6705 467.546068,1438.10117 C467.2674,1438.53184 466.722739,1438.82317 465.912068,1438.97517 C464.24006,1439.3805 462.669409,1439.82383 461.200068,1440.30517 C459.730727,1440.7865 458.43874,1441.25517 457.324068,1441.71117 C456.006728,1442.2685 454.841406,1442.8005 453.828068,1443.30717 C454.081403,1447.20852 454.182735,1450.75515 454.132068,1453.94717 C454.132068,1455.31517 454.094068,1456.69583 454.018068,1458.08917 C453.942068,1459.48251 453.828069,1460.76183 453.676068,1461.92717 C453.524067,1463.09251 453.308736,1464.10583 453.030068,1464.96717 C452.7514,1465.82851 452.434736,1466.4365 452.080068,1466.79117 C451.370731,1467.44984 450.598072,1468.01983 449.762068,1468.50117 C448.926064,1468.9825 448.140738,1469.29917 447.406068,1469.45117 C446.671398,1469.60317 446.025404,1469.56517 445.468068,1469.33717 C444.910732,1469.10917 444.556069,1468.61517 444.404068,1467.85517 C444.302734,1467.44983 444.226735,1466.82917 444.176068,1465.99317 C444.125401,1465.15716 444.087402,1464.21984 444.062068,1463.18117 C444.036735,1462.1425 444.036735,1461.01517 444.062068,1459.79917 C444.087402,1458.58316 444.100068,1457.39251 444.100068,1456.22717 C444.150735,1453.44049 444.201401,1450.42585 444.252068,1447.18317 C444.0494,1447.2845 443.846736,1447.41117 443.644068,1447.56317 C443.188066,1447.86717 442.554739,1448.0445 441.744068,1448.09517 C440.629396,1448.24717 439.793404,1447.94317 439.236068,1447.18317 C438.678732,1446.42316 438.678732,1445.40984 439.236068,1444.14317 C439.489403,1443.53516 439.856732,1442.97784 440.338068,1442.47117 C440.819404,1441.9645 441.338732,1441.5085 441.896068,1441.10317 C442.504071,1440.64717 443.188064,1440.26717 443.948068,1439.96317 C443.694733,1436.06181 443.618734,1432.31252 443.720068,1428.71517 C443.720068,1427.19516 443.770734,1425.62451 443.872068,1424.00317 C443.973402,1422.38183 444.1254,1420.79851 444.328068,1419.25317 C444.530736,1417.70783 444.784067,1416.25117 445.088068,1414.88317 C445.39207,1413.51516 445.772066,1412.32451 446.228068,1411.31117 C446.988072,1409.63916 447.938062,1408.38517 449.078068,1407.54917 C450.218074,1406.71316 451.421395,1406.19384 452.688068,1405.99117 C453.954741,1405.7885 455.221395,1405.80117 456.488068,1406.02917 C457.754741,1406.25717 458.89473,1406.59917 459.908068,1407.05517 C460.921406,1407.51117 461.744732,1407.9925 462.378068,1408.49917 C463.011405,1409.00584 463.328068,1409.41117 463.328068,1409.71517 Z M468.648068,1433.12317 C469.408072,1431.75516 470.383395,1430.57717 471.574068,1429.58917 C472.764741,1428.60116 474.056728,1427.80317 475.450068,1427.19517 C476.843408,1426.58716 478.312727,1426.1565 479.858068,1425.90317 C481.403409,1425.64983 482.910727,1425.5485 484.380068,1425.59917 C485.900076,1425.7005 487.192063,1426.21983 488.256068,1427.15717 C489.320073,1428.09451 490.067399,1429.28516 490.498068,1430.72917 C490.928737,1432.17317 490.979403,1433.75649 490.650068,1435.47917 C490.320733,1437.20184 489.522741,1438.92449 488.256068,1440.64717 C486.837394,1442.57251 485.380742,1443.9785 483.886068,1444.86517 C482.391394,1445.75184 481.010741,1446.39783 479.744068,1446.80317 C478.274727,1447.25917 476.805409,1447.4365 475.336068,1447.33517 C475.234734,1449.20984 475.386733,1450.85649 475.792068,1452.27517 C475.944069,1452.88317 476.1594,1453.46583 476.438068,1454.02317 C476.716736,1454.5805 477.084066,1455.06183 477.540068,1455.46717 C477.99607,1455.8725 478.540732,1456.1765 479.174068,1456.37917 C479.807405,1456.58184 480.55473,1456.6325 481.416068,1456.53117 C483.240077,1456.27783 484.734729,1455.69517 485.900068,1454.78317 C487.065407,1453.87116 488.040731,1452.90851 488.826068,1451.89517 C489.611405,1450.88183 490.257399,1449.9825 490.764068,1449.19717 C491.270737,1448.41183 491.777399,1448.01917 492.284068,1448.01917 C492.638736,1448.01917 492.866734,1448.48783 492.968068,1449.42517 C493.069402,1450.36251 492.980736,1451.50249 492.702068,1452.84517 C492.4234,1454.18784 491.929405,1455.60649 491.220068,1457.10117 C490.510731,1458.59584 489.510075,1459.9005 488.218068,1461.01517 C486.926062,1462.12984 485.317411,1462.92783 483.392068,1463.40917 C481.466725,1463.8905 479.161415,1463.7765 476.476068,1463.06717 C474.044056,1462.45916 472.093409,1461.30651 470.624068,1459.60917 C469.154727,1457.91183 468.040072,1456.15118 467.280068,1454.32717 C466.368063,1452.24982 465.76007,1449.94451 465.456068,1447.41117 C465.2534,1445.99249 465.2534,1444.49784 465.456068,1442.92717 C465.557402,1441.60983 465.848732,1440.08984 466.330068,1438.36717 C466.811404,1436.64449 467.584063,1434.89651 468.648068,1433.12317 Z M475.488068,1441.63517 C476.298739,1441.63517 477.13473,1441.53384 477.996068,1441.33117 C478.705405,1441.1285 479.49073,1440.77384 480.352068,1440.26717 C481.213406,1439.7605 482.024064,1439.00051 482.784068,1437.98717 C483.493405,1436.97383 484.000067,1436.06184 484.304068,1435.25117 C484.60807,1434.4405 484.810734,1433.7565 484.912068,1433.19917 C485.064069,1432.59116 485.089402,1432.03384 484.988068,1431.52717 C483.97473,1431.6285 483.012073,1431.83117 482.100068,1432.13517 C481.289397,1432.3885 480.478739,1432.78116 479.668068,1433.31317 C478.857397,1433.84517 478.198737,1434.5925 477.692068,1435.55517 C477.084065,1436.66984 476.62807,1437.60716 476.324068,1438.36717 C476.020067,1439.12717 475.817402,1439.7605 475.716068,1440.26717 C475.564067,1440.8245 475.488068,1441.2805 475.488068,1441.63517 Z M484.554805,1419.1753 C483.871341,1419.58445 483.017024,1420.01916 481.991829,1420.47946 C480.966633,1420.93975 479.925919,1421.31054 478.869657,1421.59183 C477.813395,1421.87312 476.834813,1422.01376 475.933884,1422.01376 C475.032954,1422.01376 474.427166,1421.78362 474.1165,1421.32333 C473.805835,1420.81189 474.116496,1419.94246 475.048492,1418.71501 C475.980488,1417.48756 477.223131,1416.29848 478.776458,1415.14775 C480.329785,1413.99702 481.976287,1413.08923 483.716013,1412.42436 C485.455739,1411.75949 486.946911,1411.73392 488.189572,1412.34764 C488.810903,1412.80794 489.074965,1413.35772 488.981765,1413.99702 C488.888565,1414.63632 488.608971,1415.27561 488.142973,1415.9149 C487.676975,1416.5542 487.102252,1417.16791 486.418788,1417.75607 C485.735325,1418.34422 485.114003,1418.81729 484.554805,1419.1753 Z" id="CalcuCafé-Copy-3"></path>
        </g>
    </g>
</svg>