<svg width="50" height="50" viewBox="0 0 50 50" version="1.1" xmlns="http://www.w3.org/2000/svg" xmlns:xlink="http://www.w3.org/1999/xlink">
<title>Cornell Logo</title>
<desc>Created using Figma</desc>
<g id="Canvas" transform="translate(-1942 268)">
<g id="Cornell Logo">
<g id="Vector">
<use xlink:href="#path0_fill" transform="translate(1955.26 -255.332)" fill="#EFEFEF"/>
</g>
<g id="Vector">
<use xlink:href="#path1_fill" transform="translate(1959.32 -253.403)" fill="#EFEFEF"/>
</g>
<g id="Vector">
<use xlink:href="#path2_fill" transform="translate(1969.39 -253.571)" fill="#EFEFEF"/>
</g>
<g id="Vector">
<use xlink:href="#path3_fill" transform="translate(1968.38 -241.112)" fill="#EFEFEF"/>
</g>
<g id="Vector">
<use xlink:href="#path4_fill" transform="translate(1968.38 -238.805)" fill="#EFEFEF"/>
</g>
<g id="Vector">
<use xlink:href="#path5_fill" transform="translate(1968.38 -236.456)" fill="#EFEFEF"/>
</g>
<g id="Vector">
<use xlink:href="#path6_fill" transform="translate(1963.22 -241.112)" fill="#EFEFEF"/>
</g>
<g id="Vector">
<use xlink:href="#path7_fill" transform="translate(1963.22 -238.805)" fill="#EFEFEF"/>
</g>
<g id="Vector">
<use xlink:href="#path8_fill" transform="translate(1963.22 -236.498)" fill="#EFEFEF"/>
</g>
<g id="Vector">
<use xlink:href="#path9_fill" transform="translate(1943.84 -245.81)" fill="#EFEFEF"/>
</g>
<g id="Vector">
<use xlink:href="#path10_fill" transform="translate(1944.54 -250.466)" fill="#EFEFEF"/>
</g>
<g id="Vector">
<use xlink:href="#path11_fill" transform="translate(1945.94 -254.451)" fill="#EFEFEF"/>
</g>
<g id="Vector">
<use xlink:href="#path12_fill" transform="translate(1948.17 -258.772)" fill="#EFEFEF"/>
</g>
<g id="Vector">
<use xlink:href="#path13_fill" transform="translate(1951.56 -261.582)" fill="#EFEFEF"/>
</g>
<g id="Vector">
<use xlink:href="#path14_fill" transform="translate(1954.88 -263.092)" fill="#EFEFEF"/>
</g>
<g id="Vector">
<use xlink:href="#path15_fill" transform="translate(1958.32 -264.686)" fill="#EFEFEF"/>
</g>
<g id="Vector">
<use xlink:href="#path16_fill" transform="translate(1963.64 -266.112)" fill="#EFEFEF"/>
</g>
<g id="Vector">
<use xlink:href="#path17_fill" transform="translate(1968.26 -266.07)" fill="#EFEFEF"/>
</g>
<g id="Vector">
<use xlink:href="#path18_fill" transform="translate(1972.45 -265.19)" fill="#EFEFEF"/>
</g>
<g id="Vector">
<use xlink:href="#path19_fill" transform="translate(1975.35 -264.435)" fill="#EFEFEF"/>
</g>
<g id="Vector">
<use xlink:href="#path20_fill" transform="translate(1978.12 -261.918)" fill="#EFEFEF"/>
</g>
<g id="Vector">
<use xlink:href="#path21_fill" transform="translate(1980.76 -259.233)" fill="#EFEFEF"/>
</g>
<g id="Vector">
<use xlink:href="#path22_fill" transform="translate(1983.23 -255.561)" fill="#EFEFEF"/>
</g>
<g id="Vector">
<use xlink:href="#path23_fill" transform="matrix(0.9259 -0.3777 0.3777 0.9259 1984.83 -250.841)" fill="#EFEFEF"/>
</g>
<g id="Vector">
<use xlink:href="#path24_fill" transform="translate(1985.79 -249.921)" fill="#EFEFEF"/>
</g>
<g id="Vector">
<use xlink:href="#path25_fill" transform="translate(1986.42 -245.936)" fill="#EFEFEF"/>
</g>
<g id="Vector">
<use xlink:href="#path26_fill" transform="translate(1944.52 -238.68)" fill="#EFEFEF"/>
</g>
<g id="Vector">
<use xlink:href="#path27_fill" transform="translate(1946 -235.45)" fill="#EFEFEF"/>
</g>
<g id="Vector">
<use xlink:href="#path28_fill" transform="translate(1948.54 -231.884)" fill="#EFEFEF"/>
</g>
<g id="Vector">
<use xlink:href="#path29_fill" transform="translate(1951.35 -228.696)" fill="#EFEFEF"/>
</g>
<g id="Vector">
<use xlink:href="#path30_fill" transform="translate(1955.42 -226.096)" fill="#EFEFEF"/>
</g>
<g id="Vector">
<use xlink:href="#path31_fill" transform="translate(1959.99 -224.334)" fill="#EFEFEF"/>
</g>
<g id="Vector">
<use xlink:href="#path32_fill" transform="translate(1964.06 -223.537)" fill="#EFEFEF"/>
</g>
<g id="Vector">
<use xlink:href="#path33_fill" transform="translate(1969.85 -223.956)" fill="#EFEFEF"/>
</g>
<g id="Vector">
<use xlink:href="#path34_fill" transform="translate(1973.92 -222.195)" fill="#EFEFEF"/>
</g>
<g id="Vector">
<use xlink:href="#path35_fill" transform="translate(1974.76 -225.934)" fill="#EFEFEF"/>
</g>
<g id="Vector">
<use xlink:href="#path36_fill" transform="translate(1979.08 -224.963)" fill="#EFEFEF"/>
</g>
<g id="Vector">
<use xlink:href="#path37_fill" transform="translate(1980.34 -229.619)" fill="#EFEFEF"/>
</g>
<g id="Vector">
<use xlink:href="#path38_fill" transform="translate(1982.19 -232.086)" fill="#EFEFEF"/>
</g>
<g id="Vector">
<use xlink:href="#path39_fill" transform="translate(1984.29 -235.324)" fill="#EFEFEF"/>
</g>
<g id="Vector">
<use xlink:href="#path40_fill" transform="translate(1985.41 -238.805)" fill="#EFEFEF"/>
</g>
<g id="Vector">
<use xlink:href="#path41_fill" transform="translate(1948.71 -261.247)" fill="#EFEFEF"/>
</g>
<g id="Vector">
<use xlink:href="#path42_fill" transform="translate(1942 -268)" fill="#EFEFEF"/>
</g>
</g>
</g>
<defs>
<path id="path0_fill" d="M 5.87248 25.6292C 8.72483 27.8524 11.5352 29.0688 11.6611 29.1107L 11.8708 29.1946L 12.0805 29.1107C 12.2064 29.0688 14.9748 27.8524 17.8272 25.6292C 21.6443 22.651 23.6577 19.2534 23.6577 15.7718L 23.6577 1.60012e-07L -1.60012e-07 1.60012e-07L -1.60012e-07 15.5201C -1.60012e-07 19.0856 2.01342 22.6091 5.87248 25.6292ZM 11.2836 20.7634C 11.1577 20.7215 11.0319 20.6795 10.8641 20.6795C 10.8641 20.6795 10.8641 20.6795 10.8221 20.6795C 10.2349 20.6795 9.81544 20.7215 9.35403 20.7634C 8.89262 20.8054 8.43121 20.8473 7.76007 20.8473C 7.46644 20.8473 7.17282 20.8473 6.96309 20.8473L 6.96309 13.4648C 7.00503 13.4648 7.04698 13.4648 7.04698 13.4648C 7.3406 13.4648 7.67617 13.4648 8.13758 13.4648C 8.5151 13.4648 8.93456 13.4228 9.39597 13.3809C 9.64765 13.3389 9.94127 13.3389 10.2349 13.297C 10.7383 13.255 11.1577 13.3389 11.1577 13.3389C 11.1997 13.3389 11.2416 13.3809 11.2836 13.3809C 11.2836 13.3389 11.2836 20.7634 11.2836 20.7634ZM 22.5252 15.7718C 22.5252 22.2315 14.5973 26.594 12.2483 27.7685L 12.2483 21.896C 12.2903 21.854 12.3322 21.8121 12.3742 21.7701C 12.5 21.6443 12.5839 21.5604 12.7936 21.5604C 13.3389 21.5604 13.7584 21.6024 14.2198 21.6443C 14.6812 21.6862 15.1426 21.7282 15.8557 21.7282C 16.5688 21.7282 17.1141 21.7282 17.1141 21.7282L 17.4916 21.7282L 17.4916 19.547L 18.4144 19.547L 18.4144 18.3725L 17.4916 18.3725L 17.4916 16.2332L 18.4144 16.2332L 18.4144 15.0587L 17.4916 15.0587L 17.4916 12.6678L 17.0721 12.6678C 16.9044 12.6678 16.7366 12.6678 16.5268 12.6678C 16.2332 12.6678 15.8977 12.6678 15.4782 12.6678C 15.1426 12.6678 14.7651 12.6258 14.3037 12.5839C 14.052 12.5419 13.7584 12.5419 13.4648 12.5C 12.8356 12.4161 12.2903 12.5419 12.2483 12.5419C 12.2483 12.5419 12.2483 12.5419 12.2064 12.5419L 12.2064 10.2349L 22.4832 10.2349L 22.5252 15.7718ZM 12.2483 20.8054L 12.2483 13.3809C 12.2903 13.3389 12.3742 13.3389 12.4581 13.297C 12.4581 13.297 12.9195 13.2131 13.4228 13.255C 13.7164 13.297 14.0101 13.297 14.2617 13.3389C 14.7232 13.3809 15.1426 13.4228 15.5201 13.4228C 15.8977 13.4228 16.1913 13.4228 16.4849 13.4228C 16.5688 13.4228 16.6527 13.4228 16.6946 13.4228L 16.6946 20.8473C 16.4849 20.8473 16.1913 20.8473 15.8977 20.8473C 15.2265 20.8473 14.7651 20.8054 14.3037 20.7634C 13.8423 20.7215 13.4228 20.6795 12.8356 20.6795C 12.5839 20.7215 12.4161 20.7634 12.2483 20.8054ZM 1.13255 1.13255L 22.5252 1.13255L 22.5252 9.1443L 1.13255 9.1443L 1.13255 1.13255ZM 1.13255 10.2349L 11.3255 10.2349L 11.3255 12.4581C 11.1577 12.4161 10.6963 12.3742 10.193 12.4161C 9.89933 12.4581 9.60571 12.4581 9.35403 12.5C 8.89262 12.5419 8.5151 12.5839 8.17953 12.5839C 7.76007 12.5839 7.4245 12.5839 7.13087 12.5839C 6.92114 12.5839 6.75336 12.5839 6.58557 12.5839L 6.16611 12.5839L 6.16611 14.7232L 5.1594 14.7232L 5.1594 15.8977L 6.16611 15.8977L 6.16611 18.0369L 5.1594 18.0369L 5.1594 19.2114L 6.16611 19.2114L 6.16611 21.6024L 6.54362 21.6024C 6.58557 21.6024 7.13087 21.6443 7.80201 21.6024C 8.5151 21.6024 9.01846 21.5604 9.43792 21.5185C 9.89933 21.4765 10.2768 21.4346 10.8221 21.4346C 11.0319 21.4346 11.1158 21.5185 11.1997 21.6443L 11.2416 21.6862L 11.2416 27.6007C 8.85067 26.5101 1.13255 22.1896 1.13255 15.5201L 1.13255 10.2349Z"/>
<path id="path1_fill" d="M 5.99832 3.20025e-07L -6.4005e-07 3.20025e-07L -6.4005e-07 0.419463C -6.4005e-07 1.7198 -6.4005e-07 3.94295 -6.4005e-07 4.02685C 0.0419457 4.48826 0.33557 4.90772 0.922819 5.28523C 1.63591 5.78859 2.72651 6.41779 2.76846 6.41779L 2.97819 6.54362L 3.18792 6.41779C 3.22987 6.37584 4.40436 5.74664 5.11745 5.28523C 5.95638 4.73993 5.99832 4.19463 5.99832 4.02685C 5.99832 3.94295 5.99832 2.01342 5.99832 0.419463L 5.99832 3.20025e-07ZM 0.838926 0.838926L 5.11745 0.838926C 5.11745 1.1745 5.11745 1.55201 5.11745 1.92953L 0.838926 1.92953C 0.838926 1.55201 0.838926 1.1745 0.838926 0.838926ZM 5.1594 3.9849C 5.1594 4.19463 4.86577 4.40436 4.65604 4.57215C 4.15268 4.90772 3.35571 5.36913 2.97819 5.57886C 2.64262 5.36913 1.88758 4.94966 1.38423 4.57215C 1.04866 4.36242 0.838926 4.11074 0.838926 3.94295C 0.838926 3.90101 0.838926 3.39765 0.838926 2.72651L 5.11745 2.72651C 5.1594 3.39765 5.1594 3.90101 5.1594 3.9849Z"/>
<path id="path2_fill" d="M 6.08221 -3.20025e-07L -6.4005e-07 -3.20025e-07L -6.4005e-07 0.419463C -6.4005e-07 2.05537 -6.4005e-07 4.02685 -6.4005e-07 4.15268C 0.0419457 4.61409 0.335572 5.03356 0.92282 5.41107C 1.67785 5.91443 2.76846 6.54362 2.8104 6.58557L 3.02014 6.71141L 3.22987 6.58557C 3.27181 6.54362 4.48826 5.91443 5.20134 5.41107C 6.08221 4.82383 6.08221 4.32047 6.08221 4.15268C 6.08221 4.06879 6.08221 2.09732 6.08221 0.46141L 6.08221 -3.20025e-07ZM 5.24329 4.06879C 5.24329 4.27852 4.94967 4.5302 4.73993 4.65604C 4.19463 4.99161 3.39765 5.45302 3.02014 5.66275C 2.64262 5.45302 1.92953 4.99161 1.38423 4.65604C 1.21644 4.5302 0.838926 4.27852 0.838926 4.02685C 0.838926 3.9849 0.838926 3.94295 0.838926 3.81711L 2.93624 2.30705L 5.24329 3.85906C 5.24329 3.9849 5.24329 4.06879 5.24329 4.06879ZM 2.93624 1.25839L 0.838926 2.76846C 0.838926 2.18121 0.838926 1.42617 0.838926 0.79698L 5.28523 0.79698C 5.28523 1.46812 5.28523 2.18121 5.28523 2.8104L 2.93624 1.25839Z"/>
<path id="path3_fill" d="M 0.209732 0.838926L 0.629193 0.880872C 0.880871 0.922818 1.13255 0.922818 1.34228 0.922818L 2.55873 0.964766L 2.55873 0.12584L 1.34228 0.0838913C 1.1745 0.0838913 0.964766 0.0419457 0.713088 0.0419457L 0.293625 0C 0.167786 0 0.0838929 0 3.20025e-07 0L 0.041946 0.838926C 0.0838923 0.79698 0.167786 0.79698 0.209732 0.838926Z"/>
<path id="path4_fill" d="M 1.34228 0.0838913C 1.1745 0.0838913 0.964766 0.0419457 0.713088 0.0419457C 0.587249 0.0419457 0.419464 -5.96093e-15 0.293625 -5.96093e-15C 0.167786 -5.96093e-15 0.0838929 -5.96093e-15 3.20025e-07 -5.96093e-15L 3.20025e-07 0.838926C 0.0419466 0.838926 0.125839 0.838926 0.209732 0.838926C 0.377517 0.838926 0.503354 0.880872 0.629193 0.880872C 0.880871 0.922818 1.09061 0.922818 1.30034 0.922818C 1.55201 0.922818 1.92953 0.922818 2.22315 0.922818L 2.55873 0.922818L 2.55873 0.0838913L 2.22315 0.0838913C 1.97148 0.125838 1.59396 0.0838913 1.34228 0.0838913Z"/>
<path id="path5_fill" d="M 1.34228 0.0838939C 1.1745 0.0838939 0.964766 0.041945 0.713088 0.041945C 0.587249 0.041945 0.419464 -6.4005e-07 0.293625 -6.4005e-07C 0.167786 -6.4005e-07 0.0838929 -6.4005e-07 3.20025e-07 -6.4005e-07L 0.041946 0.838926C 0.0838923 0.838926 0.167785 0.838926 0.251678 0.838926C 0.419463 0.838926 0.545303 0.880871 0.671142 0.880871C 0.92282 0.922818 1.1745 0.92282 1.34228 0.92282L 1.67785 0.92282C 2.01342 0.92282 2.43289 0.922819 2.55873 0.964766L 2.55873 0.12584C 2.43289 0.12584 2.01342 0.12584 1.67785 0.0838939L 1.34228 0.0838939Z"/>
<path id="path6_fill" d="M 1.21644 0.922818C 1.42617 0.922818 1.63591 0.880872 1.92953 0.880872C 2.05537 0.880872 2.18121 0.838926 2.34899 0.838926C 2.43289 0.838926 2.47483 0.838926 2.55872 0.838926L 2.55872 -5.96093e-15C 2.47483 -5.96093e-15 2.39094 -5.96093e-15 2.2651 -5.96093e-15C 2.09732 -5.96093e-15 1.97148 0.0419457 1.84564 0.0419457C 1.59396 0.083892 1.38423 0.0838913 1.21644 0.0838913L 6.4005e-07 0.12584L 6.4005e-07 0.964766L 1.21644 0.922818Z"/>
<path id="path7_fill" d="M 1.84564 0.0419457C 1.59396 0.083892 1.38423 0.0838913 1.21644 0.0838913L 6.4005e-07 0.12584L 6.4005e-07 0.964766L 1.21644 0.922818C 1.42617 0.922818 1.63591 0.880872 1.92953 0.880872L 2.30705 0.838926C 2.39094 0.838926 2.43289 0.838926 2.47483 0.838926L 2.51678 0C 2.43289 0 2.34899 0 2.22315 0L 1.84564 0.0419457Z"/>
<path id="path8_fill" d="M 1.84564 0.0419457C 1.59396 0.083892 1.38423 0.0838913 1.1745 0.0838913C 0.79698 0.0838913 0.167786 0.12584 6.4005e-07 0.12584L 6.4005e-07 0.964766C 0.167786 0.964766 0.796979 0.922818 1.21644 0.922818C 1.42617 0.922818 1.63591 0.880872 1.92953 0.880872L 2.34899 0.838926C 2.39094 0.838926 2.47483 0.838926 2.51678 0.838926L 2.51678 0C 2.43289 0 2.34899 0 2.22315 0L 1.84564 0.0419457Z"/>
<path id="path9_fill" d="M 1.93656 2.93624C 2.98522 2.93624 3.61441 2.2651 3.6983 1.0906C 3.6983 0.880873 3.6983 0.587248 3.65636 0.293624L 3.65636 0.209731L 2.77548 0.209731L 2.85938 0.377517C 2.90132 0.503356 2.94327 0.79698 2.94327 1.04866C 2.90132 1.63591 2.43991 2.01342 1.81072 1.97148C 1.13958 1.92953 0.762061 1.51007 0.762061 0.922819C 0.762061 0.713087 0.804007 0.503356 0.971793 0.293624L 1.09763 0.125838L 0.258705 -3.20025e-07L 0.216759 0.0838926C 0.09092 0.33557 0.0489737 0.629195 0.00702736 0.880873C -0.0768653 2.09732 0.594276 2.89429 1.81072 2.93624C 1.85267 2.93624 1.89461 2.93624 1.93656 2.93624Z"/>
<path id="path10_fill" d="M 1.40275 3.48154C 1.65443 3.56544 1.86416 3.56544 2.07389 3.56544C 2.87087 3.56544 3.45812 3.10403 3.7098 2.30705C 3.83564 1.80369 3.79369 1.38423 3.58396 0.964765C 3.33228 0.545302 2.91282 0.251678 2.36752 0.0838933C 2.15778 6.3755e-07 1.90611 3.20025e-07 1.73832 3.20025e-07C 0.941341 3.20025e-07 0.354093 0.46141 0.102415 1.25839C -0.233155 2.30705 0.2702 3.14597 1.40275 3.48154ZM 0.815503 1.51007C 0.941342 1.04866 1.31886 0.964765 1.61248 0.964765C 1.73832 0.964765 1.90611 1.00671 2.07389 1.04866C 2.45141 1.1745 2.74503 1.34228 2.87087 1.59396C 2.95476 1.76174 2.99671 1.92953 2.91282 2.13926C 2.78698 2.60067 2.40946 2.68456 2.11584 2.68456C 1.94805 2.68456 1.82221 2.64262 1.65443 2.60067C 1.15107 2.43289 0.647717 2.05537 0.815503 1.51007Z"/>
<path id="path11_fill" d="M 3.60738 2.76846L 2.39094 2.09732L 2.43289 2.01342C 2.55872 1.80369 2.64262 1.80369 2.8104 1.84564L 4.02685 2.01342L 4.48826 1.13255L 2.8943 0.964765C 2.76846 0.964765 2.68456 0.964765 2.60067 0.964765C 2.60067 0.629195 2.43289 0.293624 2.09732 0.125839C 1.92953 0.0419463 1.76174 3.20025e-07 1.59396 3.20025e-07C 1.00671 3.20025e-07 0.713087 0.587249 0.419463 1.13255L -8.00062e-08 1.92953L 3.18792 3.64933L 3.60738 2.76846ZM 1.7198 1.63591L 1.67785 1.7198L 1.0906 1.42617L 1.13255 1.34228C 1.25839 1.0906 1.42617 0.838926 1.67785 0.964765C 1.76174 1.00671 1.80369 1.04866 1.84564 1.13255C 1.88758 1.30034 1.80369 1.51007 1.7198 1.63591Z"/>
<path id="path12_fill" d="M 3.3557 3.90101L 1.7198 2.55872L 4.06879 3.10403L 4.69799 2.30705L 1.92953 -1.60012e-07L 1.34228 0.671141L 3.02013 2.05537L 0.671141 1.51007L 0 2.30705L 2.8104 4.6141L 3.3557 3.90101Z"/>
<path id="path13_fill" d="M 4.02685 2.8104L 3.52349 2.22315L 2.51678 3.02013L 2.05537 2.47483L 2.97819 1.7198L 2.47483 1.13255L 1.55201 1.88758L 1.21644 1.42617L 2.22315 0.629195L 1.7198 -8.00062e-08L 1.60012e-07 1.38423L 2.2651 4.19463L 4.02685 2.8104Z"/>
<path id="path14_fill" d="M 3.69127 2.51678L 3.31376 1.84564L 2.18121 2.47483L 0.796981 1.60012e-07L 0 0.461409L 1.76175 3.60738L 3.69127 2.51678Z"/>
<path id="path15_fill" d="M 3.31376 2.93624L 3.02014 2.22315L 1.84564 2.64262L 0.880872 8.00062e-08L 3.20025e-07 0.293624L 1.21644 3.69128L 3.31376 2.93624Z"/>
<path id="path16_fill" d="M 1.63591 3.77517C 1.7198 3.77517 1.76174 3.77517 1.84564 3.77517C 2.34899 3.73322 2.72651 3.56544 2.93624 3.31376C 3.14597 3.06208 3.22987 2.68456 3.18792 2.2651L 3.02013 4.00031e-08L 2.09732 0.0419463L 2.2651 2.09732C 2.30705 2.8104 2.01342 2.93624 1.76174 2.97819C 1.7198 2.97819 1.7198 2.97819 1.67785 2.97819C 1.46812 2.97819 1.1745 2.8943 1.0906 2.18121L 0.922818 0.125839L 6.4005e-07 0.209732L 0.167785 2.47483C 0.33557 3.31376 0.79698 3.77517 1.63591 3.77517Z"/>
<path id="path17_fill" d="M 1.1745 1.59396L 1.92953 3.81711L 2.97819 3.9849L 3.4396 0.377517L 2.55872 0.251678L 2.2651 2.39094L 1.51007 0.125839L 0.503355 0L 6.4005e-07 3.56544L 0.880872 3.69128L 1.1745 1.59396Z"/>
<path id="path18_fill" d="M 1.97148 0.293624L 1.0906 -4.00031e-08L 6.4005e-07 3.4396L 0.880872 3.73322L 1.97148 0.293624Z"/>
<path id="path19_fill" d="M 3.60738 1.55201L 2.8104 1.13255L 1.04866 2.93624L 1.42617 0.461409L 0.545301 -1.60012e-07L 1.2801e-06 3.81711L 0.922819 4.23658L 3.60738 1.55201Z"/>
<path id="path20_fill" d="M 1.76174 4.23658L 2.22315 3.60738L 1.21644 2.8104L 1.63591 2.2651L 2.55872 2.97819L 3.06208 2.34899L 2.13926 1.63591L 2.47483 1.1745L 3.48154 1.97148L 3.9849 1.34228L 2.22315 -1.60012e-07L 6.4005e-07 2.85235L 1.76174 4.23658Z"/>
<path id="path21_fill" d="M 0.629193 3.06208L 1.67785 2.13926L 1.7198 2.22315C 1.84564 2.39094 1.84564 2.43289 1.76175 2.64262L 1.1745 3.73322L 1.84564 4.48826L 2.55873 3.06208C 2.60067 3.02013 2.64262 2.8943 2.64262 2.76846C 2.93624 2.8943 3.31376 2.85235 3.60738 2.60067C 4.40436 1.92953 3.77517 1.21644 3.31376 0.671141L 2.72651 -3.20025e-07L -1.2801e-06 2.39094L 0.629193 3.06208ZM 2.76846 1.1745L 2.8104 1.25839C 2.93624 1.42617 3.06208 1.59396 3.06208 1.7198C 3.06208 1.80369 3.02013 1.84564 2.93624 1.88758C 2.89429 1.97148 2.8104 1.97148 2.76846 1.97148C 2.60067 1.97148 2.43289 1.80369 2.34899 1.67785L 2.30705 1.59396L 2.76846 1.1745Z"/>
<path id="path22_fill" d="M 1.51007 2.28374C 1.34228 2.40958 1.0906 2.19985 1.00671 2.03207C 0.880873 1.82233 0.838926 1.6126 0.838926 1.31898L 0.838926 1.10925L -6.4005e-07 1.48676L 0.041945 1.65455C 0.125838 1.94817 0.167786 2.11596 0.335571 2.40958C 0.629195 2.91294 1.00671 3.16462 1.42617 3.16462C 1.63591 3.16462 1.80369 3.12267 2.01342 2.99683C 2.64262 2.61931 2.55872 2.03207 2.47483 1.57066C 2.43289 1.27703 2.39094 1.0673 2.51678 0.983409C 2.60067 0.941462 2.64262 0.941461 2.68456 0.941461C 2.85235 0.941461 2.97819 1.10925 3.02014 1.15119C 3.14597 1.31898 3.18792 1.52871 3.22987 1.73844L 3.27181 1.90623L 4.02684 1.57066L 4.02684 1.48676C 3.9849 1.23509 3.85906 0.983408 3.69128 0.689784C 3.31376 0.0186431 2.64262 -0.191089 2.05537 0.186428C 1.42617 0.563945 1.51007 1.15119 1.59396 1.57066C 1.63591 1.99012 1.67785 2.19985 1.51007 2.28374Z"/>
<path id="path23_fill" d="M 3.60738 0L 0 0L 0 0.922819L 3.60738 0.922819L 3.60738 0Z"/>
<path id="path24_fill" d="M 2.72651 1.13255L -1.2801e-06 1.80369L 0.20973 2.68456L 2.97819 2.01342L 3.18792 2.93624L 3.94295 2.76846L 3.27181 0L 2.51678 0.209732L 2.72651 1.13255Z"/>
<path id="path25_fill" d="M -1.2801e-06 1.51007L 0.0419476 2.43289L 1.46812 2.34899L 3.73322 3.52349L 3.69128 2.51678L 2.34899 1.88758L 3.60738 1.0906L 3.52349 0L 1.42617 1.46812L -1.2801e-06 1.51007Z"/>
<path id="path26_fill" d="M 1.97148 2.55873L 2.72651 2.34899L 2.43289 1.25839L 2.97819 1.0906L 3.31376 2.2651L 4.06879 2.01342L 3.48154 1.2801e-06L 8.00062e-08 1.00671L 0.251678 1.88759L 1.67785 1.46812L 1.97148 2.55873Z"/>
<path id="path27_fill" d="M 3.72011 2.34899C 3.84595 1.92953 3.80401 1.46812 3.59427 1.00671C 3.2587 0.335571 2.75535 5.96093e-15 2.08421 5.96093e-15C 1.79058 5.96093e-15 1.45501 0.083892 1.11944 0.251677C 0.57414 0.503355 0.23857 0.880871 0.0707844 1.34228C -0.0550545 1.76174 -0.0131081 2.22316 0.196623 2.68456C 0.532194 3.31376 1.03555 3.69128 1.70669 3.69128C 2.00031 3.69128 2.33589 3.60738 2.67146 3.4396C 3.21676 3.14597 3.59427 2.8104 3.72011 2.34899ZM 2.29394 2.55872C 2.08421 2.68456 1.83253 2.72651 1.6228 2.72651C 1.28723 2.72651 1.0775 2.60067 0.951657 2.30705C 0.867764 2.09732 0.825818 1.92953 0.909711 1.76174C 0.993603 1.51007 1.24528 1.25839 1.58085 1.0906C 1.79058 1.00671 2.00031 0.922818 2.21005 0.922818C 2.54562 0.922818 2.75535 1.04866 2.88119 1.34228C 2.96508 1.55201 3.00703 1.7198 2.92313 1.88758C 2.83924 2.13926 2.62951 2.39094 2.29394 2.55872Z"/>
<path id="path28_fill" d="M 3.69128 1.59396L 2.05537 2.8943C 1.63591 3.22987 1.30034 3.27181 1.04866 2.97819C 0.964765 2.85235 0.922819 2.72651 0.922819 2.60067C 0.964765 2.43288 1.0906 2.22316 1.34228 2.01342L 2.97819 0.713086L 2.39094 5.96093e-15L 0.587248 1.42618C 0.209731 1.7198 -1.60012e-07 2.05537 -1.60012e-07 2.43289C -1.60012e-07 2.76846 0.125839 3.10403 0.419463 3.48155C 0.755033 3.94295 1.13255 4.15269 1.55201 4.15269C 1.84564 4.15269 2.13926 4.02685 2.43289 3.77517L 4.23658 2.30705L 3.69128 1.59396Z"/>
<path id="path29_fill" d="M 3.94295 1.34228L 2.60067 3.02014L 3.10403 0.67114L 2.30705 -6.4005e-07L 1.60012e-07 2.8104L 0.713087 3.39765L 2.05537 1.7198L 1.55201 4.06879L 2.34899 4.73993L 4.65604 1.92953L 3.94295 1.34228Z"/>
<path id="path30_fill" d="M 2.55873 0.46141L 1.63591 1.2801e-06L -3.20025e-07 3.22987L 0.922819 3.69127C 1.38423 3.90101 1.76175 4.02685 2.13926 4.02685C 2.76846 4.02685 3.27181 3.69128 3.60738 3.02013C 4.15269 1.92953 3.77517 1.0906 2.55873 0.46141ZM 2.72651 2.60067C 2.55872 2.97819 2.22315 3.18792 1.84564 3.18792C 1.67785 3.18792 1.55201 3.14597 1.38423 3.06208L 1.1745 2.93624L 2.09732 1.0906L 2.30705 1.21644C 2.55872 1.34228 2.72651 1.55201 2.8104 1.76174C 2.8943 2.05537 2.85235 2.30705 2.72651 2.60067Z"/>
<path id="path31_fill" d="M 3.20025e-07 3.48154L 2.13926 4.06879L 2.34899 3.31376L 1.0906 2.97819L 1.25839 2.30705L 2.43289 2.60067L 2.64262 1.84564L 1.46812 1.55201L 1.59396 0.964766L 2.89429 1.30033L 3.06208 0.545303L 0.922819 0L 3.20025e-07 3.48154Z"/>
<path id="path32_fill" d="M 1.25839 0.0419463L 0.209732 6.4005e-07L 6.4005e-07 3.60738L 1.04866 3.64933C 1.13255 3.64933 1.21644 3.64933 1.30034 3.64933C 2.51678 3.64933 3.14597 3.06208 3.22987 1.92953C 3.27181 1.38423 3.14597 0.92282 2.85235 0.58725C 2.51678 0.293625 2.01342 0.0838926 1.25839 0.0419463ZM 1.21644 2.8943L 0.964765 2.8943L 1.0906 0.838927L 1.34228 0.838927C 1.84564 0.880873 2.30705 1.25839 2.2651 1.92953C 2.22315 2.60067 1.7198 2.8943 1.21644 2.8943Z"/>
<path id="path33_fill" d="M 0.629193 0.167787L -1.2801e-06 3.9849L 0.964765 3.77517L 1.09061 2.97819L 2.2651 2.72651L 2.72651 3.4396L 3.73322 3.22987L 1.59396 6.4005e-07L 0.629193 0.167787ZM 1.21644 2.18121L 1.34228 1.21644L 1.84564 2.01342L 1.21644 2.18121Z"/>
<path id="path34_fill" d="M 6.4005e-07 0.293625L 0.335569 1.1745L 1.1745 0.838926L 0.880872 -6.4005e-07L 6.4005e-07 0.293625Z"/>
<path id="path35_fill" d="M 0.922818 0.383508L 6.4005e-07 0.886866L 1.7198 4.07478L 2.64262 3.57143C 3.85906 2.90029 4.15268 2.06136 3.60738 1.0127C 3.06208 -0.0779009 2.13926 -0.287632 0.922818 0.383508ZM 2.39094 2.8164L 2.18121 2.94223L 1.21644 1.13854L 1.42618 1.0127C 1.55201 0.92881 1.7198 0.886866 1.88758 0.886866C 2.2651 0.886866 2.55872 1.0966 2.76846 1.43217C 3.10403 2.01941 2.8104 2.56472 2.39094 2.8164Z"/>
<path id="path36_fill" d="M -1.2801e-06 0.545303L 0.503356 1.30033L 1.25839 0.755035L 0.755033 0L -1.2801e-06 0.545303Z"/>
<path id="path37_fill" d="M 0.167785 0.545301L -1.2801e-06 1.97148L 0.796979 2.09732L 0.880874 1.51007L 2.60067 3.22987L 3.27181 2.60067L 0.713088 6.4005e-07L 0.167785 0.545301Z"/>
<path id="path38_fill" d="M 3.22224 1.12491C 2.92862 0.915183 2.59305 0.873238 2.21553 0.999077C 2.21553 0.663507 2.04774 0.327936 1.79607 0.160151C 1.33466 -0.175419 0.747408 0.0343115 0.285999 0.62156C -0.133464 1.20881 -0.0915199 1.79606 0.411836 2.17357C 0.663514 2.34136 0.999084 2.3833 1.29271 2.29941C 1.25076 2.67693 1.3766 2.97055 1.67023 3.18028C 1.87996 3.34807 2.08969 3.39002 2.29942 3.39002C 2.67694 3.39002 3.01251 3.18028 3.34808 2.76082C 3.59976 2.42525 3.7256 2.08968 3.68365 1.75411C 3.6417 1.54438 3.47392 1.33465 3.22224 1.12491ZM 1.50244 1.37659C 1.3766 1.46049 1.25076 1.54438 1.12493 1.54438C 1.08298 1.54438 0.999086 1.54438 0.957139 1.50243C 0.789354 1.37659 0.873247 1.16686 0.957139 1.04102C 0.999086 0.95713 1.08298 0.915183 1.16687 0.915183C 1.20882 0.915183 1.29271 0.957131 1.3766 0.999077C 1.50244 1.08297 1.54439 1.25076 1.50244 1.37659ZM 2.76083 2.3833C 2.63499 2.55109 2.42526 2.59304 2.25747 2.4672C 2.13164 2.34136 2.04774 2.21552 2.08969 1.96384C 2.34137 1.79606 2.5511 1.75411 2.71888 1.87995C 2.80278 1.9219 2.84472 2.00579 2.84472 2.08968C 2.84472 2.17357 2.80277 2.29941 2.76083 2.3833Z"/>
<path id="path39_fill" d="M 2.75773 0.838928C 2.12854 0.545303 1.54129 0.713088 1.24766 1.30034C 1.16377 1.46812 1.12183 1.63591 1.16377 1.80369C 0.954041 1.63591 0.744311 1.34228 0.912096 0.964764C 0.995988 0.796979 1.12183 0.67114 1.24766 0.545301L 1.3735 0.46141L 0.702364 1.2801e-06L 0.61847 0.0838926C 0.450684 0.251678 0.2829 0.461409 0.157061 0.713087C -0.0107243 1.0906 -0.0526693 1.42617 0.0731696 1.76174C 0.282901 2.34899 0.870149 2.76846 1.33156 2.97819C 1.75102 3.18792 2.08659 3.27181 2.38022 3.27181C 2.84163 3.27181 3.1772 3.06208 3.42887 2.60067C 3.76444 1.84564 3.51276 1.21644 2.75773 0.838928ZM 2.75773 2.18121C 2.71578 2.30705 2.58995 2.34899 2.46411 2.34899C 2.38022 2.34899 2.25438 2.30705 2.17049 2.2651C 2.0027 2.18121 1.87686 2.05537 1.83491 1.97148C 1.79297 1.88758 1.83491 1.84564 1.83491 1.76174C 1.87686 1.63591 1.96075 1.59396 2.12854 1.59396C 2.21243 1.59396 2.33827 1.63591 2.46411 1.67785C 2.63189 1.76175 2.71578 1.84564 2.75773 1.97148C 2.79968 2.05537 2.75773 2.13926 2.75773 2.18121Z"/>
<path id="path40_fill" d="M 2.93624 0.629195C 2.22316 0.419463 1.6359 0.755034 1.42617 1.42618C 1.42617 1.51007 1.38423 1.55201 1.38423 1.59396L 0.964765 1.46812L 1.34228 0.209732L 0.629196 -5.96093e-15L 1.2801e-06 2.09732L 2.01342 2.72651L 2.01342 2.55872C 2.01342 2.34899 2.05537 2.18121 2.09732 1.97148C 2.13926 1.80369 2.34899 1.38423 2.72651 1.46812C 3.14597 1.59396 3.06208 2.05537 3.02013 2.18121C 2.93624 2.43288 2.8104 2.60067 2.68456 2.76846L 2.55873 2.8943L 3.39765 3.18792L 3.4396 3.10403C 3.56544 2.85235 3.69128 2.55872 3.77517 2.34899C 3.90101 1.92953 3.90101 1.55201 3.73322 1.21644C 3.56543 0.964766 3.27181 0.755034 2.93624 0.629195Z"/>
<path id="path41_fill" d="M -3.20025e-07 18.2468C -3.20025e-07 28.3139 8.17953 36.5354 18.2466 36.5354C 28.3138 36.5354 36.4933 28.3559 36.4933 18.2468C 36.4933 8.17969 28.3138 0.000159799 18.2466 0.000159799C 8.22148 -0.0417865 -3.20025e-07 8.17969 -3.20025e-07 18.2468ZM 18.2886 0.587408C 28.0201 0.587408 35.906 8.51526 35.906 18.2049C 35.906 27.9364 27.9782 35.8223 18.2886 35.8223C 8.55705 35.8223 0.671141 27.8945 0.671141 18.2049C 0.629194 8.51526 8.55705 0.587408 18.2886 0.587408Z"/>
<path id="path42_fill" d="M 25 2.50019e-09C 11.1997 2.50019e-09 5.00039e-09 11.1997 5.00039e-09 25C 5.00039e-09 38.7584 11.1997 50 25 50C 38.7584 50 50 38.8003 50 25C 49.9581 11.1997 38.7584 2.50019e-09 25 2.50019e-09ZM 25 49.3289C 11.5772 49.3289 0.671141 38.4228 0.671141 25C 0.671141 11.5772 11.5772 0.671141 25 0.671141C 38.4228 0.671141 49.3289 11.5772 49.3289 25C 49.3289 38.4228 38.4228 49.3289 25 49.3289Z"/>
</defs>
</svg>
