<svg width="80" height="100" viewBox="0 0 80 100" version="1.1" xmlns="http://www.w3.org/2000/svg" xmlns:xlink="http://www.w3.org/1999/xlink">
<title>Vector</title>
<desc>Created using Figma</desc>
<g id="Canvas" transform="translate(-2425 -5072)">
<g id="Vector">
<use xlink:href="#path0_fill" transform="translate(2425.48 5072)" fill="#4B2636"/>
</g>
</g>
<defs>
<path id="path0_fill" d="M 3.64 28.25C 3.64 28.6 3.64 28.89 3.64 29.18C 3.64 32.2467 3.64 35.3167 3.64 38.39C 3.64 55.2767 3.64 72.16 3.64 89.04C 3.60669 90.4665 3.85878 91.8853 4.38144 93.213C 4.90411 94.5408 5.68683 95.7507 6.68361 96.7717C 7.6804 97.7927 8.87117 98.6042 10.186 99.1586C 11.5008 99.713 12.9131 99.9991 14.34 100C 31.0733 100 47.8067 100 64.54 100C 65.4366 99.9965 66.3297 99.8857 67.2 99.67C 69.5851 99.1068 71.7027 97.7374 73.1949 95.7933C 74.6871 93.8493 75.4625 91.4497 75.39 89C 75.39 69.12 75.39 49.24 75.39 29.36C 75.39 28.99 75.39 28.63 75.39 28.2L 3.64 28.2L 3.64 28.25ZM 21.52 89.3C 21.0228 89.3012 20.5307 89.1999 20.0744 89.0026C 19.6181 88.8052 19.2073 88.516 18.8677 88.1529C 18.528 87.7898 18.2668 87.3607 18.1003 86.8922C 17.9339 86.4237 17.8657 85.926 17.9 85.43C 17.9 78.3167 17.9 71.2067 17.9 64.1C 17.9 56.9133 17.9 49.7267 17.9 42.54C 17.8872 41.66 18.1945 40.8053 18.7647 40.135C 19.335 39.4646 20.1293 39.0243 21 38.8959C 21.8707 38.7675 22.7584 38.9598 23.4978 39.437C 24.2373 39.9142 24.7783 40.6438 25.02 41.49C 25.1329 41.924 25.1834 42.3718 25.17 42.82C 25.17 57.04 25.17 71.2633 25.17 85.49C 25.1975 85.984 25.1231 86.4784 24.9514 86.9425C 24.7798 87.4065 24.5146 87.8303 24.1724 88.1876C 23.8301 88.5449 23.418 88.828 22.9618 89.0194C 22.5055 89.2107 22.0147 89.3062 21.52 89.3ZM 39.52 89.3C 39.0228 89.3012 38.5307 89.1999 38.0744 89.0026C 37.6181 88.8052 37.2073 88.516 36.8677 88.1529C 36.528 87.7898 36.2668 87.3607 36.1003 86.8922C 35.9339 86.4237 35.8657 85.926 35.9 85.43C 35.9 78.3167 35.9 71.2067 35.9 64.1C 35.9 56.9133 35.9 49.7267 35.9 42.54C 35.8846 41.6591 36.1901 40.8026 36.7595 40.1303C 37.3289 39.458 38.1235 39.0158 38.9949 38.886C 39.8664 38.7563 40.7553 38.9479 41.4958 39.4252C 42.2364 39.9025 42.7781 40.6328 43.02 41.48C 43.1327 41.914 43.1832 42.3618 43.17 42.81C 43.17 57.03 43.17 71.2533 43.17 85.48C 43.1989 85.9748 43.1255 86.4703 42.9546 86.9355C 42.7836 87.4008 42.5186 87.8258 42.1762 88.1842C 41.8338 88.5426 41.4212 88.8266 40.9642 89.0186C 40.5072 89.2105 40.0156 89.3063 39.52 89.3ZM 57.52 89.3C 57.0228 89.2999 56.5309 89.1974 56.075 88.9988C 55.6192 88.8002 55.2091 88.5099 54.8704 88.1459C 54.5317 87.7818 54.2716 87.3519 54.1064 86.8829C 53.9411 86.4139 53.8743 85.9159 53.91 85.42C 53.91 78.2733 53.91 71.1233 53.91 63.97C 53.91 56.8233 53.91 49.6733 53.91 42.52C 53.9096 41.6445 54.2257 40.7983 54.8 40.1374C 55.3743 39.4765 56.1681 39.0455 57.0351 38.9237C 57.9022 38.8019 58.784 38.9976 59.5181 39.4747C 60.2523 39.9518 60.7892 40.6782 61.03 41.52C 61.1421 41.9541 61.1926 42.4018 61.18 42.85C 61.18 57.07 61.18 71.2933 61.18 85.52C 61.2039 86.0193 61.1238 86.5182 60.9448 86.9849C 60.7659 87.4517 60.4919 87.8762 60.1403 88.2315C 59.7887 88.5869 59.3672 88.8653 58.9023 89.0493C 58.4375 89.2332 57.9395 89.3186 57.44 89.3L 57.52 89.3ZM 66.81 8L 55.08 8C 55.08 8 55.08 7.94 55.08 7.91C 55.0839 6.8735 54.8834 5.84641 54.4898 4.88755C 54.0961 3.92869 53.5172 3.05691 52.7862 2.32213C 52.0551 1.58736 51.1863 1.00403 50.2294 0.605561C 49.2726 0.20709 48.2465 0.00130785 47.21 0L 31.83 8.88178e-16C 30.7952 -3.60822e-16 29.7705 0.203822 28.8145 0.599829C 27.8584 0.995836 26.9897 1.57627 26.258 2.308C 25.5263 3.03972 24.9458 3.90841 24.5498 4.86445C 24.1538 5.8205 23.95 6.84518 23.95 7.88C 23.95 7.88 23.95 7.94 23.95 7.97L 12.23 7.97C 8.9864 7.97 5.87565 9.25851 3.58208 11.5521C 1.28851 13.8457 -4.57764e-07 16.9564 -4.57764e-07 20.2C 0.00100816 21.0708 0.0948728 21.9391 0.28 22.79L 78.76 22.79C 78.9451 21.9391 79.039 21.0708 79.04 20.2C 79.0321 16.9616 77.74 13.8586 75.4473 11.5715C 73.1546 9.28439 70.0484 7.99999 66.81 8Z"/>
</defs>
</svg>
