<svg width="74" height="73" viewBox="0 0 74 73" version="1.1" xmlns="http://www.w3.org/2000/svg" xmlns:xlink="http://www.w3.org/1999/xlink">
<title>Vector</title>
<desc>Created using Figma</desc>
<g id="Canvas" transform="translate(-2212 -5086)">
<g id="Vector">
<use xlink:href="#path0_fill" transform="translate(2212.49 5086)" fill="#4B2636"/>
</g>
</g>
<defs>
<path id="path0_fill" d="M 3.01411 72.925C 3.31411 72.925 3.61411 72.925 3.81411 72.825L 24.7141 66.725C 25.8141 66.425 26.9141 65.825 27.7141 64.925L 70.8141 21.825C 72.1141 20.525 72.8141 18.725 72.8141 16.825C 72.8141 14.925 72.1141 13.225 70.8141 11.925L 60.9141 2.025C 58.2141 -0.675 53.7141 -0.675 51.0141 2.025L 8.01411 45.125C 7.21411 45.925 6.61411 47.025 6.21411 48.125L 0.114114 69.025C -0.185886 70.025 0.114113 71.225 0.914113 72.025C 1.51411 72.625 2.31411 72.925 3.01411 72.925ZM 43.9141 17.725L 55.2141 29.025L 25.5141 58.725L 14.2141 47.425L 43.9141 17.725ZM 55.4141 6.225C 55.6141 6.025 55.9141 5.925 56.1141 5.925C 56.4141 5.925 56.6141 6.025 56.8141 6.225L 66.7141 16.125C 66.9141 16.425 67.0141 16.725 67.0141 16.825C 67.0141 16.925 67.0141 17.325 66.7141 17.525L 59.5141 24.725L 48.2141 13.425L 55.4141 6.225ZM 11.1141 52.725L 20.1141 61.725L 7.41411 65.425L 11.1141 52.725Z"/>
</defs>
</svg>
