<?xml version="1.0" encoding="UTF-8" standalone="no"?>
<svg width="91px" height="68px" viewBox="0 0 91 68" version="1.1" xmlns="http://www.w3.org/2000/svg" xmlns:xlink="http://www.w3.org/1999/xlink">
    <!-- Generator: Sketch 48.2 (47327) - http://www.bohemiancoding.com/sketch -->
    <title>money</title>
    <desc>Created with Sketch.</desc>
    <defs></defs>
    <g id="Page-1" stroke="none" stroke-width="1" fill="none" fill-rule="evenodd">
        <g id="money" fill="#4A2736" fill-rule="nonzero">
            <path d="M83.2745314,10.0294985 L83.2745314,9.02654867 C83.2745314,4.0413235 79.2317664,0 74.244763,0 L9.02976847,0 C4.04276505,-3.56319366e-15 1.78223233e-15,4.0413235 0,9.02654867 L0,40.3185841 C1.78223233e-15,45.3038092 4.04276505,49.3451327 9.02976847,49.3451327 L29.3969129,49.3451327 L29.3969129,60.3775811 C29.3969129,65.5929204 37.323043,68 45.0485116,68 C52.7739802,68 58.1918412,66.2949853 60.1984564,62.6843658 C62.1047409,66.3952802 68.7265711,68 75.3484013,68 C81.9702315,68 91,65.6932153 91,60.3775811 L91,38.6135693 L91,16.7492625 C91,13.339233 87.6890849,11.2330383 83.2745314,10.0294985 Z M84.9801544,26.979351 C84.0771775,27.7817109 80.5656009,28.9852507 75.3484013,28.9852507 C70.1312018,28.9852507 66.6196251,27.7817109 65.7166483,26.979351 L65.7166483,22.9675516 C68.8321114,23.9446208 72.0835505,24.4186199 75.3484013,24.3716814 C78.6132522,24.4186199 81.8646912,23.9446208 84.9801544,22.9675516 L84.9801544,26.979351 Z M84.9801544,48.8436578 C84.0771775,49.6460177 80.5656009,50.8495575 75.3484013,50.8495575 C70.1312018,50.8495575 66.6196251,49.6460177 65.7166483,48.8436578 L65.7166483,44.7315634 C68.8321114,45.7086326 72.0835505,46.1826317 75.3484013,46.1356932 C78.6132522,46.1826317 81.8646912,45.7086326 84.9801544,44.7315634 L84.9801544,48.8436578 Z M6.01984564,29.2861357 L5.91951488,29.2861357 L5.91951488,20.0589971 L6.01984564,20.0589971 C13.8105271,20.0597695 20.1570858,13.8048302 20.2668137,6.01769912 L62.907387,6.01769912 C62.9093364,7.8038849 63.2497746,9.57353248 63.9106946,11.2330383 C61.3020948,12.4365782 59.4961411,14.2418879 59.4961411,16.7492625 L59.4961411,35.5044248 C58.5687745,34.4156961 57.4009709,33.5573231 56.0848953,32.9970501 C57.5256744,30.4950453 58.2866238,27.6597909 58.292172,24.7728614 C58.2811113,17.2514163 53.2267673,10.6714724 45.9605441,8.71906271 C38.6943208,6.76665303 31.0210022,9.92671694 27.2391213,16.4290114 C23.4572404,22.9313058 24.5061405,31.1607914 29.7982359,36.5073746 C29.4732124,37.1622574 29.3016565,37.8825354 29.2965821,38.6135693 L29.2965821,43.4277286 L20.2668137,43.4277286 C20.2116773,35.6013469 13.8492132,29.2859416 6.01984564,29.2861357 Z M34.6141125,32.6961652 C30.2483128,28.8732985 29.7547633,22.2573825 33.5050534,17.8294847 C37.2553435,13.4015869 43.8643862,12.7970535 48.3562889,16.4710327 C52.8481916,20.1450119 53.5639693,26.7406005 49.9647189,31.2920354 C48.3346527,31.0809574 46.6921619,30.9804326 45.0485116,30.9911504 C41.4958814,30.9244307 37.960581,31.5021103 34.6141125,32.6961652 Z M45.0485116,37.0088496 C48.104694,36.9109947 51.1472231,37.4577712 53.9779493,38.6135693 C51.1472231,39.7693674 48.104694,40.3161439 45.0485116,40.2182891 C41.9923291,40.3161439 38.9498001,39.7693674 36.1190739,38.6135693 C38.9498001,37.4577712 41.9923291,36.9109947 45.0485116,37.0088496 Z M35.4167585,44.7315634 C38.5322217,45.7086326 41.7836607,46.1826317 45.0485116,46.1356932 C48.3133624,46.1826317 51.5648015,45.7086326 54.6802646,44.7315634 L54.6802646,48.8436578 C53.7772878,49.6460177 50.2657111,50.8495575 45.0485116,50.8495575 C39.831312,50.8495575 36.3197354,49.6460177 35.4167585,48.8436578 L35.4167585,44.7315634 Z M65.6163175,38.0117994 L65.6163175,33.5988201 C68.7317807,34.5758892 71.9832197,35.0498883 75.2480706,35.0029499 C78.5129214,35.0498883 81.7643605,34.5758892 84.8798236,33.5988201 L84.8798236,38.1120944 C83.9768467,38.9144543 80.4652701,40.1179941 75.2480706,40.1179941 C70.030871,40.1179941 66.5192944,38.8141593 65.6163175,38.1120944 L65.6163175,38.0117994 Z M75.2480706,18.2536873 C72.1918881,18.3515421 69.1493591,17.8047657 66.3186329,16.6489676 C69.1493591,15.4931694 72.1918881,14.946393 75.2480706,15.0442478 C78.304253,14.946393 81.346782,15.4931694 84.1775083,16.6489676 C81.3542107,17.8390924 78.3114091,18.4200944 75.2480706,18.3539823 L75.2480706,18.2536873 Z M77.2546858,9.02654867 L77.2546858,9.22713864 L75.2480706,9.22713864 C73.4345752,9.2239501 71.6234423,9.35806025 69.8302095,9.62831858 C69.2686076,8.54111883 68.9599337,7.34114841 68.9272326,6.11799363 L74.244763,6.1179941 C75.8686912,6.117092 77.2005551,7.40410131 77.2546858,9.02654867 Z M9.02976847,6.01769912 L14.3472988,6.01769912 C14.2383602,10.4812692 10.5866671,14.0426262 6.12017641,14.0412979 L6.01984517,14.0412983 L6.01984564,9.02654867 C6.01894322,7.40319946 7.30641161,6.07181051 8.92943771,6.01769912 L9.02976847,6.01769912 Z M6.01984564,40.3185841 L6.01984564,35.3038348 L6.12017641,35.3038348 C10.5866671,35.3025066 14.2383602,38.8638636 14.3472988,43.3274336 L8.92943771,43.3274336 C7.26710323,43.3274336 5.91951488,41.9803258 5.91951488,40.3185841 L6.01984564,40.3185841 Z M45.1488423,61.8820059 C39.831312,61.8820059 36.4200662,60.6784661 35.5170893,59.8761062 L35.5170893,55.4631268 C38.6325524,56.440196 41.8839915,56.9141951 45.1488423,56.8672566 C48.4136932,56.9141951 51.6651322,56.440196 54.7805954,55.4631268 L54.7805954,59.9764012 C53.7772878,60.6784661 50.3660419,61.9823009 45.0485116,61.9823009 L45.1488423,61.8820059 Z M75.3484013,61.8820059 C70.030871,61.8820059 66.6196251,60.6784661 65.7166483,59.8761062 L65.7166483,55.4631268 C68.8321114,56.440196 72.0835505,56.9141951 75.3484013,56.8672566 C78.6132522,56.9141951 81.8646912,56.440196 84.9801544,55.4631268 L84.9801544,59.9764012 C83.9768467,60.6784661 80.5656009,61.9823009 75.2480706,61.9823009 L75.3484013,61.8820059 Z" id="Shape"></path>
        </g>
    </g>
</svg>