<?xml version="1.0" encoding="UTF-8" standalone="no"?>
<svg width="92px" height="83px" viewBox="0 0 92 83" version="1.1" xmlns="http://www.w3.org/2000/svg" xmlns:xlink="http://www.w3.org/1999/xlink">
    <!-- Generator: Sketch 48.2 (47327) - http://www.bohemiancoding.com/sketch -->
    <title>organic</title>
    <desc>Created with Sketch.</desc>
    <defs></defs>
    <g id="Page-1" stroke="none" stroke-width="1" fill="none" fill-rule="evenodd">
        <g id="organic" fill="#4A2736" fill-rule="nonzero" stroke="#4A2736" stroke-width="3.5">
            <path d="M76.5647451,3.93565976 L75.7909505,3 L74.673247,3.51035987 C74.4153155,3.59541985 74.1573839,3.7655398 73.8994524,3.85059978 L73.727498,3.85059978 C73.727498,3.85059978 73.727498,3.93565976 73.727498,3.93565976 C62.7224182,9.03925845 54.7265398,14.2279171 48.8800912,19.4165758 C47.5904334,18.2257361 46.2147984,17.0348964 44.7531862,15.7589967 C30.7389049,4.19083969 16.3807148,6.57251908 6.83724714,9.37949836 L4,10.2300981 L6.32138403,12.1014177 C12.4257642,17.0348964 11.9099011,18.565976 10.1043802,24.2649945 L10.018403,24.6052345 C5.71954372,37.6194111 8.72874524,49.5278081 18.1862357,58.1188659 C29.1053384,68.8364231 42.345825,77.7677208 47.5904334,80.4045802 C47.5904334,80.4045802 48.5361824,80.82988 48.5361824,80.82988 L48.9660684,81 L49.2239999,80.91494 L50.3417033,80.4045802 C51.8033155,79.7241003 57.7357414,75.4711014 60.4870113,73.5147219 C65.903574,69.7720829 73.6415208,63.9880044 79.4879695,58.3740458 C86.6240759,52.1646674 100.466403,34.4721919 76.5647451,3.93565976 Z M49.0078704,77 C45.8897597,71.9740741 37.8346404,56.8962963 38.0078687,46.6740741 C37.7480262,36.7074074 43.8110192,22.0555556 73,8 C72.5669291,9.87407407 72.1338581,11.7481481 71.7874014,13.7074074 C67.3700779,34.1518519 61.82677,59.3666667 49.0078704,77 Z M42.26,17.950116 C43.62,19.0599129 44.81,20.1697097 46,21.3648756 C36.735,30.6700953 34.355,39.4631011 34.525,46.2926202 C34.525,46.8048342 34.525,47.4024171 34.61,48 C33.165,43.5608126 31.89,39.3777322 30.7,35.3653897 L29.595,31.6945232 C26.875,22.8161484 20.5,15.3890464 12,11.035228 C20.415,9.15711023 31.465,8.98637225 42.26,17.950116 Z M20.2669226,56.2156295 C14.0945838,50.6657019 7.83531066,40.9319826 12.7905686,25.8191027 L12.8775029,25.4775687 C14.1815182,21.4645441 14.9639273,18.8176556 13.6599121,16 C20.0061196,20.0130246 24.7875088,26.0752533 26.9608675,32.9913169 L28.0910141,36.6628075 C31.568388,48.1041968 35.7412368,61.9363242 44,75 C37.6537925,70.9015919 28.2648828,63.9001447 20.2669226,56.2156295 Z M77.5711916,55.4187256 C70.7314366,61.9271782 61.2412765,68.7737321 55,73 C65.7726142,55.4187256 70.8169335,32.5123537 74.9207865,13.663199 C75.3482712,11.7191157 75.7757559,9.85955787 76.2032406,8 C90.0537446,27.1872562 90.6522231,43.923277 77.5711916,55.4187256 Z" id="Shape"></path>
        </g>
    </g>
</svg>