<svg width="96" height="96" viewBox="0 0 96 96" version="1.1" xmlns="http://www.w3.org/2000/svg" xmlns:xlink="http://www.w3.org/1999/xlink">
<title>Vector</title>
<desc>Created using Figma</desc>
<g id="Canvas" transform="translate(-3019 -4959)">
<g id="Vector">
<use xlink:href="#path0_fill" transform="translate(3019.59 4959)" fill="#4B2636"/>
</g>
</g>
<defs>
<path id="path0_fill" d="M 91.492 38.25C 88.962 35.721 85.599 34.328 82.024 34.328L 61.087 34.328L 61.087 13.389C 61.084 6.013 55.08 0.01 47.698 0C 44.118 0 40.755 1.397 38.225 3.928C 35.696 6.463 34.306 9.828 34.309 13.389L 34.306 34.328L 13.381 34.323C 6.00401 34.328 0.00500863 40.328 8.62765e-06 47.704C -0.00399137 51.277 1.38501 54.642 3.91201 57.173C 6.44001 59.708 9.80401 61.105 13.388 61.105L 34.307 61.105L 34.307 82.04C 34.317 89.409 40.317 95.411 47.684 95.418L 47.707 95.418C 55.088 95.411 61.094 89.405 61.091 82.028L 61.087 61.105L 82.032 61.105C 89.404 61.1 95.404 55.099 95.413 47.716C 95.413 44.139 94.017 40.775 91.492 38.25Z"/>
</defs>
</svg>
