<svg width="36" height="48" viewBox="0 0 36 48" version="1.1" xmlns="http://www.w3.org/2000/svg" xmlns:xlink="http://www.w3.org/1999/xlink">
<title>Liza Spray Bottle</title>
<desc>Created using Figma</desc>
<g id="Canvas" transform="translate(-731 -3186)">
<g id="Liza Spray Bottle">
<g id="Vector 21">
<use xlink:href="#path0_fill" transform="translate(732.502 3192.28)" fill="#4B2636"/>
</g>
<g id="Vector 20">
<use xlink:href="#path1_fill" transform="translate(731 3204.27)" fill="#4B2636"/>
</g>
<g id="Vector 22">
<use xlink:href="#path2_stroke" transform="translate(757.539 3196.59)" fill="#4B2636"/>
</g>
<g id="Vector 22">
<use xlink:href="#path3_stroke" transform="matrix(0.722195 0.69169 -0.722195 0.69169 757.039 3200.43)" fill="#4B2636"/>
</g>
<g id="Vector 22">
<use xlink:href="#path3_stroke" transform="matrix(0.722195 -0.69169 0.722195 0.69169 756.037 3192.43)" fill="#4B2636"/>
</g>
</g>
</g>
<defs>
<path id="path0_fill" d="M 0 2.87755L 0 0L 10.5156 0C 12.5186 0 16.5245 0.57551 16.5245 2.87755L 20.0297 2.87755L 20.0297 5.27551L 16.5245 5.27551C 16.5245 5.59524 16.3242 6.23469 15.523 6.23469C 15.3561 7.35374 15.6232 10.2633 18.0267 12.949C 16.3576 12.3095 13.0193 10.1673 13.0193 6.71429C 12.1847 6.87415 10.5156 7.76939 10.5156 10.0714L 4.00594 10.0714C 4.00594 8.47279 3.33829 5.59524 3.00446 4.79592C 2.67063 3.9966 1.60238 2.87755 0 2.87755Z"/>
<path id="path1_fill" d="M 13.2621 0L 4.61291 0L 4.61291 2.87755L 0 9.11224L 0 29.7347L 19.0282 29.7347L 19.0282 9.11224L 13.2621 2.87755L 13.2621 0Z"/>
<path id="path2_stroke" d="M 0 -1C -0.552285 -1 -1 -0.552285 -1 0C -1 0.552285 -0.552285 1 0 1L 0 -1ZM 8.01189 1C 8.56417 1 9.01189 0.552285 9.01189 0C 9.01189 -0.552285 8.56417 -1 8.01189 -1L 8.01189 1ZM 0 1L 8.01189 1L 8.01189 -1L 0 -1L 0 1Z"/>
<path id="path3_stroke" d="M 0 -1C -0.552285 -1 -1 -0.552285 -1 0C -1 0.552285 -0.552285 1 0 1L 0 -1ZM 7.8445 1C 8.39679 1 8.8445 0.552285 8.8445 0C 8.8445 -0.552285 8.39679 -1 7.8445 -1L 7.8445 1ZM 0 1L 7.8445 1L 7.8445 -1L 0 -1L 0 1Z"/>
</defs>
</svg>
