<?xml version="1.0" encoding="UTF-8" standalone="no"?>
<svg width="94px" height="61px" viewBox="0 0 94 61" version="1.1" xmlns="http://www.w3.org/2000/svg" xmlns:xlink="http://www.w3.org/1999/xlink">
    <!-- Generator: Sketch 48.2 (47327) - http://www.bohemiancoding.com/sketch -->
    <title>transport</title>
    <desc>Created with Sketch.</desc>
    <defs></defs>
    <g id="Page-1" stroke="none" stroke-width="1" fill="none" fill-rule="evenodd">
        <g id="transport" fill="#4A2736" fill-rule="nonzero">
            <path d="M88.9,26.3 L81.9,13.5 C81.4,12.5 80.4,11.9 79.3,11.9 L63.8,11.9 C63.7,5.9 58.8,1 52.8,1 L12,1 C5.9,1 1,5.9 1,12 L1,44.2 C1,49.2 5,53.2 10,53.2 L10.4,53.2 C11.6,57.8 15.8,61 20.7,61 C25.6,61 29.7,57.7 31,53.2 L65.9,53.2 C67.1,57.8 71.3,61 76.2,61 C81.1,61 85.2,57.7 86.5,53.2 L87,53.2 C90.9,53.2 94,50.1 94,46.2 L94,33 C94,29.9 91.9,27.1 88.9,26.3 Z M63.8,26 L63.8,18 L77.5,18 L81.9,26 L63.8,26 Z M76.2,55.1 C73.6,55.1 71.5,53 71.5,50.4 C71.5,47.8 73.6,45.7 76.2,45.7 C78.8,45.7 80.9,47.8 80.9,50.4 C80.9,53 78.8,55.1 76.2,55.1 Z M87,47.3 L86.4,47.3 C85,42.9 80.9,39.8 76.2,39.8 C71.6,39.8 67.4,42.9 66,47.3 L63.8,47.3 L63.8,32 L87,32 C87.6,32 88,32.4 88,33 L88,46.3 C88,46.8 87.5,47.3 87,47.3 Z M20.7,55.1 C18.1,55.1 16,53 16,50.4 C16,47.8 18.1,45.7 20.7,45.7 C23.3,45.7 25.4,47.8 25.4,50.4 C25.4,53 23.3,55.1 20.7,55.1 Z M12,7.1 L52.8,7.1 C55.6,7.1 57.8,9.3 57.8,12.1 L57.8,47.3 L30.8,47.3 C29.4,42.9 25.3,39.8 20.6,39.8 C16,39.8 11.8,42.9 10.4,47.3 L9.8,47.3 C8.1,47.3 6.8,46 6.8,44.3 L6.8,12.1 C7,9.3 9.2,7.1 12,7.1 Z" id="Shape"></path>
        </g>
    </g>
</svg>