<svg width="53" height="39" viewBox="0 0 53 39" version="1.1" xmlns="http://www.w3.org/2000/svg" xmlns:xlink="http://www.w3.org/1999/xlink">
<title>Transition icon</title>
<desc>Created using Figma</desc>
<g id="Canvas" transform="translate(-1012 -3193)">
<g id="Transition icon">
<g id="Vector 23">
<use xlink:href="#path0_fill" transform="translate(1028 3204)" fill="#4B2636"/>
<use xlink:href="#path1_stroke" transform="translate(1028 3204)" fill="#4B2636"/>
</g>
<g id="Vector 23">
<use xlink:href="#path0_fill" transform="matrix(-1 -1.22465e-16 1.22465e-16 -1 1049 3220.9)" fill="#4B2636"/>
<use xlink:href="#path1_stroke" transform="matrix(-1 -1.22465e-16 1.22465e-16 -1 1049 3220.9)" fill="#4B2636"/>
</g>
</g>
</g>
<defs>
<path id="path0_fill" d="M 0 24L 3.5 21C 3.5 21 5.85386 22.2289 7.5 22.5C 9.62807 22.8505 10.5 22.5 13 22C 15.5 21.5 18.5 19.5 18.5 19.5C 18.5 19.5 21.5968 16.8317 22.5 14.5C 23.3493 12.3075 23 8.5 23 8.5L 17 8.5L 26 0L 35 9L 28 9C 28 9 27.7254 14.8399 26 18C 23.8786 21.8855 21.5821 23.7872 17.5 25.5C 13.7017 27.0937 11.0648 27.1667 7 26.5C 4.13549 26.0302 0 24 0 24Z"/>
<path id="path1_stroke" d="M 3.5 21L 3.7314 20.5568L 3.43148 20.4002L 3.1746 20.6204L 3.5 21ZM 0 24L -0.325396 23.6204L -0.901696 24.1143L -0.220339 24.4488L 0 24ZM 7 26.5L 7.08093 26.0066L 7 26.5ZM 17.5 25.5L 17.3065 25.0389L 17.5 25.5ZM 26 18L 25.5611 17.7604L 26 18ZM 28 9L 28 8.5L 27.523 8.5L 27.5006 8.97651L 28 9ZM 35 9L 35 9.5L 36.2071 9.5L 35.3536 8.64645L 35 9ZM 26 0L 26.3536 -0.353553L 26.01 -0.69715L 25.6567 -0.363507L 26 0ZM 17 8.5L 16.6567 8.13649L 15.7424 9L 17 9L 17 8.5ZM 23 8.5L 23.4979 8.45432L 23.4562 8L 23 8L 23 8.5ZM 22.5 14.5L 22.0338 14.3194L 22.5 14.5ZM 18.5 19.5L 18.7773 19.916L 18.803 19.8989L 18.8264 19.8788L 18.5 19.5ZM 7.5 22.5L 7.58125 22.0066L 7.5 22.5ZM 3.1746 20.6204L -0.325396 23.6204L 0.325396 24.3796L 3.8254 21.3796L 3.1746 20.6204ZM 0 24C -0.220339 24.4488 -0.220283 24.4489 -0.220212 24.4489C -0.220167 24.4489 -0.220079 24.449 -0.21999 24.449C -0.219837 24.4491 -0.219568 24.4492 -0.219263 24.4494C -0.218707 24.4496 -0.217792 24.4501 -0.216684 24.4506C -0.214576 24.4517 -0.211257 24.4533 -0.207079 24.4553C -0.198942 24.4593 -0.186471 24.4653 -0.170516 24.4731C -0.139053 24.4883 -0.0917578 24.511 -0.0314227 24.5397C 0.0883165 24.5966 0.264475 24.6794 0.483071 24.7793C 0.918262 24.9782 1.53442 25.2509 2.23739 25.537C 3.63941 26.1072 5.44269 26.7492 6.91907 26.9934L 7.08093 26.0066C 5.6928 25.781 3.99608 25.173 2.61423 24.6107C 1.92527 24.3305 1.32852 24.0662 0.898786 23.8698C 0.684922 23.7721 0.515616 23.6925 0.398006 23.6366C 0.339667 23.6089 0.295316 23.5875 0.264802 23.5728C 0.249768 23.5655 0.238668 23.5601 0.230981 23.5564C 0.227246 23.5545 0.22459 23.5532 0.2227 23.5523C 0.22181 23.5519 0.22122 23.5516 0.220772 23.5514C 0.220575 23.5513 0.220467 23.5512 0.220368 23.5512C 0.220332 23.5512 0.220324 23.5512 0.220306 23.5512C 0.220315 23.5512 0.220339 23.5512 0 24ZM 6.91907 26.9934C 11.0311 27.6655 13.8072 27.5824 17.6935 25.9611L 17.3065 25.0389C 13.5963 26.6049 11.0984 26.6678 7.08093 26.0066L 6.91907 26.9934ZM 17.6935 25.9611C 21.8411 24.2149 24.2644 22.2035 26.4389 18.2396L 25.5611 17.7604C 23.4928 21.5674 21.3232 23.3595 17.3065 25.0389L 17.6935 25.9611ZM 26.4389 18.2396C 27.3459 16.5784 27.8555 14.2546 28.1412 12.3907C 28.285 11.4518 28.3751 10.6072 28.4282 10.0058C 28.4549 9.70353 28.4728 9.45744 28.4838 9.28983C 28.4893 9.20527 28.4932 9.13857 28.4957 9.09424C 28.497 9.07172 28.4979 9.054 28.4985 9.04249C 28.4988 9.03655 28.499 9.03179 28.4992 9.02879C 28.4993 9.02721 28.4993 9.02588 28.4994 9.02508C 28.4994 9.02464 28.4994 9.02424 28.4994 9.02402C 28.4994 9.02388 28.4994 9.02375 28.4994 9.02368C 28.4994 9.02357 28.4994 9.02349 28 9C 27.5006 8.97651 27.5006 8.97647 27.5006 8.97645C 27.5006 8.97647 27.5006 8.97647 27.5006 8.97652C 27.5005 8.97665 27.5005 8.97678 27.5005 8.97705C 27.5005 8.97767 27.5005 8.97846 27.5004 8.9797C 27.5003 8.98233 27.5001 8.986 27.4998 8.99121C 27.4993 9.00199 27.4984 9.01745 27.4973 9.03847C 27.4949 9.08123 27.4912 9.14309 27.4859 9.22438C 27.4751 9.38849 27.4581 9.62332 27.4321 9.91788C 27.3798 10.5103 27.2933 11.3231 27.1528 12.2392C 26.8698 14.0853 26.3795 16.2615 25.5611 17.7604L 26.4389 18.2396ZM 28 9.5L 35 9.5L 35 8.5L 28 8.5L 28 9.5ZM 35.3536 8.64645L 26.3536 -0.353553L 25.6464 0.353553L 34.6464 9.35355L 35.3536 8.64645ZM 25.6567 -0.363507L 16.6567 8.13649L 17.3433 8.86351L 26.3433 0.363507L 25.6567 -0.363507ZM 17 9L 23 9L 23 8L 17 8L 17 9ZM 23 8.5C 22.5021 8.54568 22.5021 8.54563 22.5021 8.54559C 22.5021 8.5456 22.5021 8.54557 22.5021 8.54559C 22.5021 8.54566 22.5021 8.5457 22.5021 8.54584C 22.5021 8.54621 22.5022 8.54663 22.5022 8.54737C 22.5024 8.54903 22.5026 8.55122 22.5029 8.55449C 22.5035 8.56139 22.5043 8.57107 22.5054 8.58451C 22.5077 8.61214 22.5108 8.65166 22.5147 8.7042C 22.5224 8.81081 22.5324 8.96238 22.5419 9.15404C 22.5612 9.54068 22.5779 10.0689 22.5685 10.6701C 22.5498 11.8869 22.4244 13.311 22.0338 14.3194L 22.9662 14.6806C 23.4249 13.4964 23.5494 11.9206 23.5684 10.6855C 23.5779 10.0608 23.5604 9.5001 23.5407 9.10431C 23.5307 8.90476 23.52 8.74174 23.512 8.63157C 23.508 8.57572 23.5044 8.53129 23.502 8.50208C 23.5008 8.4871 23.4997 8.47513 23.4991 8.46749C 23.4987 8.46348 23.4984 8.46019 23.4983 8.45817C 23.4982 8.45707 23.4981 8.4561 23.498 8.45555C 23.498 8.45523 23.498 8.45492 23.4979 8.45476C 23.4979 8.45466 23.4979 8.45455 23.4979 8.4545C 23.4979 8.4544 23.4979 8.45432 23 8.5ZM 22.0338 14.3194C 21.6185 15.3915 20.675 16.5832 19.7943 17.5348C 19.3593 18.0051 18.9562 18.3993 18.6553 18.6826C 18.5061 18.823 18.3861 18.9323 18.301 19.0085C 18.2591 19.0461 18.2273 19.0742 18.2051 19.0938C 18.1942 19.1033 18.1864 19.1101 18.1808 19.115C 18.1781 19.1173 18.1764 19.1188 18.175 19.12C 18.1744 19.1205 18.1741 19.1208 18.1738 19.1211C 18.1736 19.1212 18.1736 19.1212 18.1736 19.1213C 18.1735 19.1213 18.1736 19.1213 18.1736 19.1213C 18.1736 19.1212 18.1736 19.1212 18.5 19.5C 18.8264 19.8788 18.8264 19.8787 18.8265 19.8787C 18.8266 19.8786 18.8266 19.8786 18.8267 19.8785C 18.8269 19.8784 18.8271 19.8782 18.8274 19.8779C 18.8278 19.8775 18.8286 19.8769 18.8295 19.8761C 18.8311 19.8747 18.8338 19.8724 18.837 19.8696C 18.8432 19.8642 18.8529 19.8557 18.8649 19.8452C 18.8885 19.8245 18.9241 19.793 18.9686 19.753C 19.0565 19.6743 19.1854 19.5569 19.3407 19.4107C 19.6486 19.1208 20.0762 18.7023 20.5283 18.214C 21.4218 17.2485 22.4783 15.9403 22.9662 14.6806L 22.0338 14.3194ZM 18.5 19.5C 18.2227 19.084 18.2227 19.0839 18.2227 19.0839C 18.2227 19.0839 18.2227 19.0839 18.2227 19.0839C 18.2227 19.084 18.2227 19.084 18.2225 19.084C 18.2223 19.0842 18.2219 19.0845 18.2214 19.0848C 18.22 19.0857 18.2183 19.0868 18.2158 19.0885C 18.2103 19.0921 18.2027 19.0972 18.192 19.1041C 18.1701 19.1185 18.1386 19.1389 18.0965 19.1659C 18.0111 19.2206 17.8888 19.2977 17.7319 19.3934C 17.4153 19.5865 16.9753 19.8445 16.4536 20.1206C 15.4045 20.6763 14.0965 21.2741 12.9019 21.5097L 13.0981 22.4903C 14.4035 22.2259 15.8455 21.5737 16.9214 21.0044C 17.4622 20.718 17.9285 20.4448 18.2525 20.2472C 18.4159 20.1476 18.5475 20.0646 18.6359 20.008C 18.6807 19.9793 18.7162 19.9562 18.7394 19.941C 18.7513 19.9332 18.7608 19.927 18.7669 19.923C 18.7701 19.9209 18.7727 19.9191 18.7743 19.9181C 18.7752 19.9175 18.7759 19.917 18.7764 19.9167C 18.7766 19.9165 18.7769 19.9163 18.777 19.9163C 18.7771 19.9162 18.7772 19.9161 18.7772 19.9161C 18.7773 19.9161 18.7773 19.916 18.5 19.5ZM 12.9019 21.5097C 10.3601 22.0181 9.59721 22.3387 7.58125 22.0066L 7.41875 22.9934C 9.65893 23.3623 10.6399 22.9819 13.0981 22.4903L 12.9019 21.5097ZM 7.58125 22.0066C 6.80595 21.8814 5.86342 21.5255 5.08001 21.1889C 4.6904 21.0217 4.3551 20.8644 4.11162 20.7463C 3.99094 20.6878 3.89622 20.6406 3.82977 20.607C 3.79705 20.5905 3.77252 20.578 3.75539 20.5692C 3.74705 20.5649 3.74107 20.5618 3.73681 20.5596C 3.73479 20.5585 3.73344 20.5578 3.73242 20.5573C 3.73197 20.5571 3.73171 20.5569 3.73149 20.5568C 3.7314 20.5568 3.73138 20.5568 3.73134 20.5567C 3.73133 20.5567 3.73134 20.5567 3.73134 20.5567C 3.73137 20.5568 3.7314 20.5568 3.5 21C 3.2686 21.4432 3.26865 21.4433 3.26871 21.4433C 3.26875 21.4433 3.26881 21.4433 3.26888 21.4434C 3.26898 21.4434 3.26917 21.4435 3.26937 21.4436C 3.26972 21.4438 3.27032 21.4441 3.271 21.4445C 3.27226 21.4451 3.27431 21.4462 3.2768 21.4475C 3.28154 21.4499 3.28898 21.4538 3.29829 21.4586C 3.31644 21.4679 3.34409 21.482 3.37894 21.4996C 3.44765 21.5343 3.54968 21.5852 3.6754 21.6462C 3.92471 21.767 4.28076 21.9339 4.68538 22.1078C 5.49044 22.4534 6.5479 22.8475 7.41875 22.9934L 7.58125 22.0066Z"/>
</defs>
</svg>
