<svg width="90" height="57" viewBox="0 0 90 57" version="1.1" xmlns="http://www.w3.org/2000/svg" xmlns:xlink="http://www.w3.org/1999/xlink">
<title>Vector</title>
<desc>Created using Figma</desc>
<g id="Canvas" transform="translate(-240 -4984)">
<g id="Vector">
<use xlink:href="#path0_fill" transform="translate(240 4984)" fill="#4B2636"/>
</g>
</g>
<defs>
<path id="path0_fill" d="M 88.1 25.2C 84.9 26.1 79.7 27.3 73.9 27.6C 73 27.6 72.3 26.8 72.4 25.9C 73.2 18.5 73.1 10.7 71.8 4.6C 71.5 3.3 69.8 3 69 4.1C 64.2 11.4 59.4 17.4 54.2 22C 53.7 22.5 52.9 22.5 52.3 22.1C 49.3 20 46.8 17.4 44.8 14.2C 40.1 6.9 36.9 7.62939e-07 26 7.62939e-07C 15.6 7.62939e-07 12.1 8.7 10.1 10.7C 7.9 12.8 1.8 14.4 1.8 14.4C 1.8 14.4 0 14.7 0 16C 0 17 1.6 17.3 1.6 17.3L 9 19.1L 9.9 19.3C 11.2 19.7 12.1 20.4 11.8 22.3C 9.2 44.2 20.8 56.6 43.9 56.6C 65.9 56.6 82.2 42.8 89.7 27.4C 90.4 26.2 89.3 24.8 88.1 25.2ZM 34 14.3C 33.7 15.7 32.5 16.8 31.1 17.2C 28.1 17.9 25.5 15.3 26.2 12.3C 26.5 10.9 27.7 9.8 29.1 9.4C 32.1 8.7 34.7 11.3 34 14.3Z"/>
</defs>
</svg>
