<svg width="98" height="100" viewBox="0 0 98 100" version="1.1" xmlns="http://www.w3.org/2000/svg" xmlns:xlink="http://www.w3.org/1999/xlink">
<title>Group</title>
<desc>Created using Figma</desc>
<g id="Canvas" transform="translate(-3100 -4792)">
<g id="Group">
<g id="Vector">
<use xlink:href="#path0_fill" transform="translate(3103.83 4816.96)" fill="#4B2636"/>
</g>
<g id="Vector">
<use xlink:href="#path1_fill" transform="translate(3100.79 4792)" fill="#4B2636"/>
</g>
<g id="Vector">
<use xlink:href="#path2_fill" transform="translate(3151.85 4822.78)" fill="#4B2636"/>
</g>
<g id="Vector">
<use xlink:href="#path3_fill" transform="translate(3110.78 4839.08)" fill="#4B2636"/>
</g>
<g id="Vector">
<use xlink:href="#path4_fill" transform="translate(3106.51 4824.75)" fill="#4B2636"/>
</g>
<g id="Vector">
<use xlink:href="#path5_fill" transform="translate(3100 4837.92)" fill="#4B2636"/>
</g>
<g id="Vector">
<use xlink:href="#path6_fill" transform="translate(3112.72 4835.88)" fill="#4B2636"/>
</g>
<g id="Vector">
<use xlink:href="#path7_fill" transform="translate(3145.05 4875.67)" fill="#4B2636"/>
</g>
<g id="Vector">
<use xlink:href="#path8_fill" transform="translate(3140.78 4861.33)" fill="#4B2636"/>
</g>
<g id="Vector">
<use xlink:href="#path9_fill" transform="translate(3134.27 4874.5)" fill="#4B2636"/>
</g>
<g id="Vector">
<use xlink:href="#path10_fill" transform="translate(3146.99 4872.47)" fill="#4B2636"/>
</g>
<g id="Vector">
<use xlink:href="#path11_fill" transform="translate(3131.12 4827.94)" fill="#4B2636"/>
</g>
<g id="Vector">
<use xlink:href="#path12_fill" transform="translate(3128.02 4817.53)" fill="#4B2636"/>
</g>
<g id="Vector">
<use xlink:href="#path13_fill" transform="translate(3123.29 4827.09)" fill="#4B2636"/>
</g>
<g id="Vector">
<use xlink:href="#path14_fill" transform="translate(3132.53 4825.61)" fill="#4B2636"/>
</g>
<g id="Vector">
<use xlink:href="#path15_fill" transform="translate(3158.46 4857.59)" fill="#4B2636"/>
</g>
<g id="Vector">
<use xlink:href="#path16_fill" transform="translate(3155.36 4847.18)" fill="#4B2636"/>
</g>
<g id="Vector">
<use xlink:href="#path17_fill" transform="translate(3150.64 4856.74)" fill="#4B2636"/>
</g>
<g id="Vector">
<use xlink:href="#path18_fill" transform="translate(3159.87 4855.26)" fill="#4B2636"/>
</g>
<g id="Vector">
<use xlink:href="#path19_fill" transform="translate(3150.15 4820.82)" fill="#4B2636"/>
</g>
<g id="Vector">
<use xlink:href="#path20_fill" transform="translate(3147.77 4813.84)" fill="#4B2636"/>
</g>
<g id="Vector">
<use xlink:href="#path21_fill" transform="translate(3144.17 4820.26)" fill="#4B2636"/>
</g>
<g id="Vector">
<use xlink:href="#path22_fill" transform="translate(3151.2 4819.27)" fill="#4B2636"/>
</g>
<g id="Vector">
<use xlink:href="#path23_fill" transform="translate(3170.95 4841.62)" fill="#4B2636"/>
</g>
<g id="Vector">
<use xlink:href="#path24_fill" transform="translate(3168.56 4834.63)" fill="#4B2636"/>
</g>
<g id="Vector">
<use xlink:href="#path25_fill" transform="translate(3164.97 4841.05)" fill="#4B2636"/>
</g>
<g id="Vector">
<use xlink:href="#path26_fill" transform="translate(3171.99 4840.06)" fill="#4B2636"/>
</g>
<g id="Vector">
<use xlink:href="#path27_fill" transform="translate(3165.7 4817.27)" fill="#4B2636"/>
</g>
<g id="Vector">
<use xlink:href="#path28_fill" transform="translate(3164.09 4812.56)" fill="#4B2636"/>
</g>
<g id="Vector">
<use xlink:href="#path29_fill" transform="translate(3161.67 4816.89)" fill="#4B2636"/>
</g>
<g id="Vector">
<use xlink:href="#path30_fill" transform="translate(3166.41 4816.22)" fill="#4B2636"/>
</g>
</g>
</g>
<defs>
<path id="path0_fill" d="M 89.116 3.612C 88.527 2.379 87.884 1.176 87.199 -1.06812e-07C 55.436 6.55 16.954 23.78 -5.53131e-08 49.308C 4.169 56.859 10.231 63.215 17.545 67.745C 32.291 39.198 70.435 10.43 89.116 3.612Z"/>
<path id="path1_fill" d="M 87.371 20.564C 78.259 8.101 63.536 0 46.915 0C 25.434 0 7.118 13.525 2.14577e-08 32.522C 25.66 19.774 65.727 17.275 87.371 20.564Z"/>
<path id="path2_fill" d="M 6.40869e-07 69.22C 25.723 67.109 45.944 45.579 45.944 19.312C 45.944 12.466 44.567 5.943 42.083 6.86646e-07C 24.628 17.841 7.085 43.849 6.40869e-07 69.22Z"/>
<path id="path3_fill" d="M 1.575 0L 0 0L 0 14.367L 1.575 14.367L 1.575 0Z"/>
<path id="path4_fill" d="M 2.25565 3.204C 5.05865 5.834 5.97165 11.474 5.80765 14.315C 11.3787 9.79 5.24265 1.107 0.376653 1.64795e-06C 0.706653 2.208 0.483653 4.251 0.153653 6.076C -0.566347 10.101 1.31265 14.025 4.35365 14.346C 4.43365 12.308 5.05865 9.426 2.25565 3.204Z"/>
<path id="path5_fill" d="M 2.507 2.49882C 4.173 1.73782 8.387 2.09783 10.206 2.57883C 7.021 -2.23917 1.279 0.743828 0 3.07683C 1.53 3.31483 2.834 3.88883 3.973 4.48283C 6.484 5.79583 9.469 5.36783 10.315 3.42083C 8.983 2.94983 4.428 2.46382 2.507 2.49882Z"/>
<path id="path6_fill" d="M 5.7863 2.35C 5.39031 4.132 2.55931 7.282 1.08431 8.439C 6.84531 8.807 7.92931 2.426 6.8383 -5.79834e-07C 5.72431 1.077 4.47931 1.771 3.31931 2.32C 0.754306 3.531 -0.701694 6.174 0.339306 8.019C 1.52531 7.243 4.66031 3.9 5.7863 2.35Z"/>
<path id="path7_fill" d="M 1.575 0L 0 0L 0 14.367L 1.575 14.367L 1.575 0Z"/>
<path id="path8_fill" d="M 2.25565 3.204C 5.05865 5.834 5.97165 11.474 5.80765 14.313C 11.3797 9.79 5.24265 1.105 0.376653 1.83105e-06C 0.706653 2.208 0.482653 4.253 0.153653 6.075C -0.566347 10.099 1.31265 14.026 4.35365 14.346C 4.43265 12.308 5.05765 9.425 2.25565 3.204Z"/>
<path id="path9_fill" d="M 2.509 2.50017C 4.175 1.73717 8.389 2.09917 10.207 2.57917C 7.021 -2.23883 1.28 0.74317 1.00708e-06 3.07617C 1.53 3.31417 2.835 3.88817 3.973 4.48217C 6.484 5.79517 9.469 5.36717 10.315 3.42317C 8.986 2.94917 4.431 2.46517 2.509 2.50017Z"/>
<path id="path10_fill" d="M 5.78402 2.349C 5.38802 4.132 2.55802 7.282 1.08302 8.439C 6.84402 8.805 7.92902 2.424 6.83702 3.41797e-06C 5.72302 1.075 4.47802 1.77 3.31802 2.319C 0.756019 3.529 -0.702982 6.173 0.340018 8.017C 1.52102 7.241 4.65602 3.897 5.78402 2.349Z"/>
<path id="path11_fill" d="M 1.145 0L 0 0L 0 10.435L 1.145 10.435L 1.145 0Z"/>
<path id="path12_fill" d="M 1.63897 2.326C 3.67397 4.235 4.33697 8.331 4.21697 10.393C 8.26497 7.108 3.80597 0.801 0.274974 4.27246e-07C 0.514974 1.603 0.351975 3.088 0.110975 4.412C -0.410025 7.333 0.952974 10.185 3.16097 10.419C 3.21997 8.937 3.67397 6.843 1.63897 2.326Z"/>
<path id="path13_fill" d="M 1.82 1.81498C 3.028 1.26298 6.09 1.52397 7.412 1.87297C 5.096 -1.62603 0.928999 0.539975 -7.32422e-07 2.23397C 1.111 2.40697 2.059 2.82297 2.885 3.25497C 4.71 4.20997 6.876 3.89797 7.49 2.48597C 6.523 2.13997 3.216 1.78998 1.82 1.81498Z"/>
<path id="path14_fill" d="M 4.20046 1.709C 3.91146 3.002 1.85746 5.29 0.786458 6.13C 4.96946 6.396 5.75746 1.762 4.96646 6.10352e-08C 4.15546 0.78 3.25346 1.286 2.41046 1.685C 0.547459 2.563 -0.509542 4.485 0.246457 5.823C 1.10546 5.262 3.38346 2.833 4.20046 1.709Z"/>
<path id="path15_fill" d="M 1.146 0L 0 0L 0 10.438L 1.146 10.438L 1.146 0Z"/>
<path id="path16_fill" d="M 1.6386 2.328C 3.6736 4.237 4.3356 8.334 4.2186 10.395C 8.2656 7.11 3.8076 0.801999 0.275603 -1.31226e-06C 0.516603 1.604 0.353602 3.09 0.110602 4.414C -0.409398 7.336 0.953601 10.187 3.1616 10.422C 3.2206 8.938 3.6746 6.845 1.6386 2.328Z"/>
<path id="path17_fill" d="M 1.818 1.81647C 3.027 1.26147 6.088 1.52247 7.411 1.87347C 5.096 -1.62653 0.928998 0.540466 -1.67847e-06 2.23347C 1.108 2.40747 2.059 2.82447 2.886 3.25447C 4.713 4.20747 6.877 3.89847 7.492 2.48347C 6.524 2.14047 3.214 1.78947 1.818 1.81647Z"/>
<path id="path18_fill" d="M 4.20015 1.708C 3.91215 3 1.85815 5.29 0.78615 6.131C 4.96915 6.395 5.75615 1.764 4.96615 1.0376e-06C 4.15615 0.781001 3.25315 1.288 2.41115 1.686C 0.54915 2.564 -0.510852 4.485 0.247148 5.822C 1.10515 5.26 3.38115 2.832 4.20015 1.708Z"/>
<path id="path19_fill" d="M 0.818001 0L 0 0L 0 7.002L 0.818001 7.002L 0.818001 0Z"/>
<path id="path20_fill" d="M 1.24791 1.562C 2.79591 2.844 3.29792 5.59 3.20992 6.975C 6.28792 4.771 2.89591 0.539001 0.207913 7.01904e-07C 0.391913 1.078 0.266916 2.072 0.0839165 2.96C -0.311084 4.921 0.725915 6.833 2.40592 6.989C 2.44691 5.999 2.79191 4.593 1.24791 1.562Z"/>
<path id="path21_fill" d="M 1.383 1.21858C 2.303 0.847575 4.628 1.02258 5.635 1.25658C 3.875 -1.09042 0.706001 0.361576 8.8501e-07 1.49858C 0.845001 1.61458 1.565 1.89458 2.194 2.18458C 3.582 2.82458 5.228 2.61457 5.694 1.66657C 4.96 1.43657 2.446 1.20358 1.383 1.21858Z"/>
<path id="path22_fill" d="M 3.19558 1.147C 2.97658 2.016 1.41658 3.55 0.597579 4.114C 3.77758 4.291 4.37758 1.182 3.77558 -6.10352e-07C 3.15858 0.523999 2.47158 0.865 1.83158 1.13C 0.41558 1.72 -0.387421 3.008 0.187579 3.908C 0.839579 3.532 2.57358 1.902 3.19558 1.147Z"/>
<path id="path23_fill" d="M 0.816001 0L 0 0L 0 7.002L 0.816001 7.002L 0.816001 0Z"/>
<path id="path24_fill" d="M 1.24434 1.564C 2.79234 2.845 3.29734 5.592 3.20634 6.975C 6.28534 4.773 2.89334 0.538999 0.20734 -5.79834e-07C 0.39034 1.078 0.266346 2.073 0.0843463 2.962C -0.311654 4.922 0.724346 6.834 2.40435 6.991C 2.44635 5.999 2.79234 4.595 1.24434 1.564Z"/>
<path id="path25_fill" d="M 1.384 1.2183C 2.303 0.848295 4.63 1.02329 5.637 1.25629C 3.877 -1.09071 0.706996 0.362294 -3.66211e-06 1.49829C 0.844996 1.61429 1.566 1.89429 2.195 2.18429C 3.58 2.82529 5.227 2.6153 5.695 1.6673C 4.96 1.4363 2.447 1.2033 1.384 1.2183Z"/>
<path id="path26_fill" d="M 3.19769 1.147C 2.97569 2.016 1.41669 3.549 0.596694 4.112C 3.77969 4.29 4.37869 1.181 3.77669 1.37329e-06C 3.15869 0.524001 2.47369 0.861999 1.83269 1.129C 0.418694 1.719 -0.387302 3.007 0.186698 3.906C 0.841697 3.529 2.57369 1.9 3.19769 1.147Z"/>
<path id="path27_fill" d="M 0.550997 0L 2.38037e-06 0L 2.38037e-06 4.727L 0.550997 4.727L 0.550997 0Z"/>
<path id="path28_fill" d="M 0.843358 1.054C 1.88536 1.919 2.22636 3.772 2.16536 4.707C 4.24336 3.218 1.95736 0.362 0.140363 2.74658e-07C 0.264363 0.727 0.179362 1.398 0.0573624 1.999C -0.211638 3.322 0.491364 4.614 1.62436 4.719C 1.65336 4.048 1.88536 3.099 0.843358 1.054Z"/>
<path id="path29_fill" d="M 0.933 0.821231C 1.552 0.571231 3.122 0.689231 3.804 0.848231C 2.616 -0.736769 0.477001 0.245231 9.15527e-07 1.01123C 0.570001 1.09023 1.06 1.27923 1.483 1.47423C 2.419 1.90623 3.53 1.76423 3.842 1.12423C 3.348 0.96823 1.65 0.812231 0.933 0.821231Z"/>
<path id="path30_fill" d="M 2.15669 0.774C 2.00769 1.361 0.950685 2.396 0.403685 2.777C 2.54969 2.897 2.95169 0.799 2.54669 -4.27246e-07C 2.13069 0.354 1.66869 0.583 1.23469 0.764C 0.279687 1.161 -0.261307 2.03 0.126693 2.638C 0.562693 2.383 1.73669 1.285 2.15669 0.774Z"/>
</defs>
</svg>
