<svg width="100" height="100" viewBox="0 0 100 100" version="1.1" xmlns="http://www.w3.org/2000/svg" xmlns:xlink="http://www.w3.org/1999/xlink">
<title>info icon</title>
<desc>Created using Figma</desc>
<g id="Canvas" transform="translate(-1709 -5092)">
<g id="info icon">
<g id="Ellipse 4">
<mask id="mask0_outline_ins">
<use xlink:href="#path0_fill" fill="white" transform="translate(1709 5092)"/>
</mask>
<g mask="url(#mask0_outline_ins)">
<use xlink:href="#path1_stroke_2x" transform="translate(1709 5092)" fill="#4B2636"/>
</g>
</g>
<g id="i">
<use xlink:href="#path2_fill" transform="translate(1748 5098)" fill="#4B2636"/>
</g>
</g>
</g>
<defs>
<path id="path0_fill" d="M 100 50C 100 77.6142 77.6142 100 50 100C 22.3858 100 0 77.6142 0 50C 0 22.3858 22.3858 0 50 0C 77.6142 0 100 22.3858 100 50Z"/>
<path id="path1_stroke_2x" d="M 96 50C 96 75.4051 75.4051 96 50 96L 50 104C 79.8234 104 104 79.8234 104 50L 96 50ZM 50 96C 24.5949 96 4 75.4051 4 50L -4 50C -4 79.8234 20.1766 104 50 104L 50 96ZM 4 50C 4 24.5949 24.5949 4 50 4L 50 -4C 20.1766 -4 -4 20.1766 -4 50L 4 50ZM 50 4C 75.4051 4 96 24.5949 96 50L 104 50C 104 20.1766 79.8234 -4 50 -4L 50 4Z"/>
<path id="path2_fill" d="M 3.384 69L 2.952 66.192C 5.304 65.712 6.72 65.232 7.2 64.752C 7.728 64.224 7.992 63.336 7.992 62.088L 7.992 41.424C 7.992 40.416 7.608 39.696 6.84 39.264C 6.072 38.784 4.632 38.328 2.52 37.896L 2.952 35.592C 8.088 34.92 11.664 34.584 13.68 34.584L 14.472 35.304L 14.472 63.816C 14.472 64.392 14.592 64.776 14.832 64.968C 15.12 65.112 15.48 65.232 15.912 65.328L 19.44 66.192L 19.152 69L 3.384 69ZM 14.544 21.768C 14.544 22.968 14.16 23.976 13.392 24.792C 12.672 25.608 11.688 26.016 10.44 26.016C 9.24 26.016 8.232 25.656 7.416 24.936C 6.648 24.216 6.264 23.232 6.264 21.984C 6.264 20.688 6.624 19.656 7.344 18.888C 8.112 18.12 9.144 17.736 10.44 17.736C 13.176 17.736 14.544 19.08 14.544 21.768Z"/>
</defs>
</svg>
